<svg xmlns="http://www.w3.org/2000/svg" width="105" height="30" viewBox="0 0 105 30"><g transform="translate(-22 -15)"><path d="M33.519,13.282c0,2.322,1.62,2.916,3.438,2.916s3.456-.594,3.456-2.916V10.006A2.548,2.548,0,0,0,37.569,7.27a1.7,1.7,0,0,0-.5.072L34.851,8.89V3.22H33.519Zm1.332-3.366,1.98-1.1a1.963,1.963,0,0,1,.846-.216c.972,0,1.4.756,1.4,1.836v2.88c0,1.188-.846,1.674-2.124,1.674s-2.106-.486-2.106-1.674Zm8.262-2.448v5.994A2.548,2.548,0,0,0,45.957,16.2a1.7,1.7,0,0,0,.5-.072l2.214-1.548V16h1.332V7.468H48.675v6.084l-1.98,1.1a2.027,2.027,0,0,1-.846.216c-.972,0-1.4-.612-1.4-1.692V7.468ZM54.543,5.38V3.22H53.211V5.38Zm0,10.62V7.468H53.211V16Zm10.08,0V3.22H63.291V7.648a6.163,6.163,0,0,0-2.106-.378c-2.682,0-3.456,1.242-3.456,3.006v3.186A2.548,2.548,0,0,0,60.573,16.2a1.7,1.7,0,0,0,.5-.072l2.214-1.548V16Zm-1.332-2.448-1.98,1.1a2.027,2.027,0,0,1-.846.216c-.918,0-1.4-.522-1.4-1.71v-2.97c0-1.206.828-1.71,2.106-1.71a9.867,9.867,0,0,1,2.124.378ZM69.159,16V3.22H67.827V16Zm6.66-8.73c-2.682,0-3.456,1.242-3.456,3.006v2.682c0,2.538,1.89,3.24,3.834,3.24a19.638,19.638,0,0,0,2.754-.2V14.758a25.777,25.777,0,0,1-2.628.18c-1.332,0-2.628-.324-2.628-1.818v-.792h5.544V10.276C79.239,8.512,78.5,7.27,75.819,7.27Zm-2.124,3.852V10.114c0-1.206.846-1.674,2.124-1.674,1.476,0,2.088.648,2.088,1.638v1.044ZM83.019,16V11.032a3.684,3.684,0,0,1,3.222-2.25v-1.4a3.3,3.3,0,0,0-3.132,2.07h-.09V7.468H81.687V16Zm5.652,0V13.93H86.943V16Zm9.756,0V3.22H97.095V7.648a6.163,6.163,0,0,0-2.106-.378c-2.682,0-3.456,1.242-3.456,3.006v3.186A2.548,2.548,0,0,0,94.377,16.2a1.7,1.7,0,0,0,.5-.072l2.214-1.548V16Zm-1.332-2.448-1.98,1.1a2.027,2.027,0,0,1-.846.216c-.918,0-1.4-.522-1.4-1.71v-2.97c0-1.206.828-1.71,2.106-1.71a9.867,9.867,0,0,1,2.124.378Zm7.524-6.282c-2.682,0-3.456,1.242-3.456,3.006v2.682c0,2.538,1.89,3.24,3.834,3.24a19.638,19.638,0,0,0,2.754-.2V14.758a25.777,25.777,0,0,1-2.628.18c-1.332,0-2.628-.324-2.628-1.818v-.792h5.544V10.276C108.039,8.512,107.3,7.27,104.619,7.27Zm-2.124,3.852V10.114c0-1.206.846-1.674,2.124-1.674,1.476,0,2.088.648,2.088,1.638v1.044Zm11.016,3.672h-.18l-2.412-7.326h-1.386L112.467,16h1.908l2.934-8.532h-1.386Z" transform="translate(0 20.354)" fill="#222"/><rect width="105" height="30" transform="translate(22 15)" fill="none"/></g></svg>