<svg xmlns="http://www.w3.org/2000/svg" xmlns:xlink="http://www.w3.org/1999/xlink" width="1005.418" height="843.646" viewBox="0 0 1005.418 843.646"><defs><linearGradient id="a" x1="0.933" y1="0.094" x2="0.418" y2="0.637" gradientUnits="objectBoundingBox"><stop offset="0" stop-color="#f9c738"/><stop offset="1" stop-color="#f9c738" stop-opacity="0"/></linearGradient><linearGradient id="b" x1="0.91" y1="0.073" x2="-0.032" y2="0.8" xlink:href="#a"/><linearGradient id="c" x1="0.205" y1="0.288" x2="1" y2="1" xlink:href="#a"/></defs><g transform="translate(0 0.5)"><path d="M941.394,556.308,954.026,549v87.518L903.5,665.66V651.044l37.894-21.834Z" transform="translate(-88.324 -53.669)" fill="#0c0c18" stroke="#f9c738" stroke-linecap="square" stroke-linejoin="round" stroke-width="1"/><path d="M805.5,476.2v14.616L919.183,556.5v58.285l12.631,7.308v-72.9Z" transform="translate(-78.743 -46.552)" fill="#0c0c18" stroke="#f9c738" stroke-linecap="square" stroke-linejoin="round" stroke-width="1"/><path d="M875.5,563.907l25.263-15.7L888.131,540.9,875.5,548.208Z" transform="translate(-85.586 -52.877)" fill="#0c0c18" stroke="#f9c738" stroke-linecap="square" stroke-linejoin="round" stroke-width="1"/><path d="M930.131,530.434l25.263-14.526L942.763,508.6,917.5,523.126Z" transform="translate(-89.692 -49.719)" fill="#0c0c18" stroke="#f9c738" stroke-linecap="square" stroke-linejoin="round" stroke-width="1"/><path d="M931.5,517.784l12.631,7.308,25.263-14.616V379.2l-12.631,7.308v116.75Z" transform="translate(-91.061 -37.069)" fill="#0c0c18" stroke="#f9c738" stroke-linecap="square" stroke-linejoin="round" stroke-width="1"/><path d="M868.657,435.8,805.5,472.251l126.314,72.991,12.631-7.308L830.763,472.251l50.526-29.142Z" transform="translate(-78.743 -42.603)" fill="#0c0c18" stroke="#f9c738" stroke-linecap="square" stroke-linejoin="round" stroke-width="1"/><path d="M871.394,450.207l-25.263,14.436L833.5,457.335,871.394,435.5l12.631-7.308.9,102.134,11.729-7.308,12.631,7.308-37.894,21.834Zm25.263-160.6V405.185l12.631-7.308V282.3Z" transform="translate(-81.48 -27.597)" fill="#0c0c18" stroke="#f9c738" stroke-linecap="square" stroke-linejoin="round" stroke-width="1"/><path d="M637.5,726.9V435.119l12.631-7.308V719.6ZM751.183,355,637.5,420.593v14.616l113.683-65.593Z" transform="translate(-62.32 -34.704)" fill="#0c0c18" stroke="#f9c738" stroke-linecap="square" stroke-linejoin="round" stroke-width="1"/><path d="M819.5,314.791v14.526l126.314-72.9V241.8Z" transform="translate(-80.112 -23.638)" fill="#0c0c18" stroke="#f9c738" stroke-linecap="square" stroke-linejoin="round" stroke-width="1"/><path d="M903.5,240.226l12.631,7.308,12.631-7.308L903.5,225.7Z" transform="translate(-88.324 -22.063)" fill="#0c0c18" stroke="#f9c738" stroke-linecap="square" stroke-linejoin="round" stroke-width="1"/><path d="M889.5,399.571l12.631,7.308V290.4L889.5,297.618Z" transform="translate(-86.955 -28.389)" fill="#0c0c18" stroke="#f9c738" stroke-linecap="square" stroke-linejoin="round" stroke-width="1"/><path d="M917.5,389.075l12.631,7.308,63.157-36.451V330.7L917.5,374.459Z" transform="translate(-89.692 -32.328)" fill="#0c0c18" stroke="#f9c738" stroke-linecap="square" stroke-linejoin="round" stroke-width="1"/><path d="M846.331,432.552l25.082-14.436V403.5L833.7,425.334Z" transform="translate(-81.5 -39.445)" fill="#0c0c18" stroke="#f9c738" stroke-linecap="square" stroke-linejoin="round" stroke-width="1"/><path d="M874.131,401.125,861.5,393.816,886.763,379.2v14.616Z" transform="translate(-84.218 -37.069)" fill="#0c0c18" stroke="#f9c738" stroke-linecap="square" stroke-linejoin="round" stroke-width="1"/><path d="M630.657,423.741V730.052l25.263,14.616V584.16l12.631,7.037V766.5L618.026,737.36v-306.4L567.5,401.816V387.2Zm12.631,36.631V474.9l75.788,43.669V504.131Zm12.631,8.21,12.631,7.308" transform="translate(-55.477 -37.852)" fill="#0c0c18" stroke="#f9c738" stroke-linecap="square" stroke-linejoin="round" stroke-width="1"/><path d="M945.5,496.742V394.608l12.631-7.308V504.05Z" transform="translate(-92.429 -37.861)" fill="#0c0c18" stroke="#f9c738" stroke-linecap="square" stroke-linejoin="round" stroke-width="1"/><path d="M721.5,265.308,734.222,258l50.435,29.142v14.616Z" transform="translate(-70.532 -25.222)" fill="#0c0c18" stroke="#f9c738" stroke-linecap="square" stroke-linejoin="round" stroke-width="1"/><path d="M889.5,471.459l.09-14.526,25.173,14.526,50.526-29.142V427.7l25.263,14.616-75.788,43.759Z" transform="translate(-86.955 -41.811)" fill="#0c0c18" stroke="#f9c738" stroke-linecap="square" stroke-linejoin="round" stroke-width="1"/><path d="M782.414,260.657,870.654,209.5l50.526,29.142-126.314,72.9V296.927l101.051-58.375-25.263-14.616-75.608,43.849Zm-164.389,138.4,12.631,7.308L769.6,326.16V311.544ZM567.5,369.919l151.577-87.427,12.631,7.308L592.763,369.919l37.894,21.924-12.631,7.308Z" transform="translate(-55.477 -20.48)" fill="#0c0c18" stroke="#f9c738" stroke-linecap="square" stroke-linejoin="round" stroke-width="1"/><path d="M734.445,298.4l12.631,7.308L608.222,385.918,595.5,378.609Z" transform="translate(-58.214 -29.171)" fill="#0c0c18" stroke="#f9c738" stroke-linecap="square" stroke-linejoin="round" stroke-width="1"/><path d="M935.92,421.385,847.5,370.318l12.631-7.218,75.788,43.759Z" transform="translate(-82.849 -35.496)" fill="#0c0c18" stroke="#f9c738" stroke-linecap="square" stroke-linejoin="round" stroke-width="1"/><path d="M846.131,371.1,833.5,378.408l101.051,58.375V422.167Z" transform="translate(-81.48 -36.277)" fill="#0c0c18" stroke="#f9c738" stroke-linecap="square" stroke-linejoin="round" stroke-width="1"/><path d="M869.484,323,819.5,351.872l12.631,7.308L882.3,330.218Z" transform="translate(-80.112 -31.575)" fill="#0c0c18" stroke="#f9c738" stroke-linecap="square" stroke-linejoin="round" stroke-width="1"/><path d="M819.5,355v14.616l12.631,7.218V362.308Z" transform="translate(-80.112 -34.704)" fill="#0c0c18" stroke="#f9c738" stroke-linecap="square" stroke-linejoin="round" stroke-width="1"/><path d="M883.665,331,833.5,359.962v14.526l63.157-36.451Z" transform="translate(-81.48 -32.357)" fill="#0c0c18" stroke="#f9c738" stroke-linecap="square" stroke-linejoin="round" stroke-width="1"/><path d="M839.849,448.031l-13.173,7.308L763.7,418.708l12.631-7.308Z" transform="translate(-74.657 -40.217)" fill="#0c0c18" stroke="#f9c738" stroke-linecap="square" stroke-linejoin="round" stroke-width="1"/><path d="M832.131,282.2,819.5,289.508l12.631,7.308,12.631-7.308Z" transform="translate(-80.112 -27.587)" fill="#0c0c18" stroke="#f9c738" stroke-linecap="square" stroke-linejoin="round" stroke-width="1"/><path d="M993.288,458.516V443.9L917.5,487.659v14.616h0V516.8l12.631-7.218V494.967Z" transform="translate(-89.692 -43.395)" fill="#0c0c18" stroke="#f9c738" stroke-linecap="square" stroke-linejoin="round" stroke-width="1"/><path d="M914.763,490.816,889.5,476.2l.361,14.616,12.361,7.218h-.09v14.616l12.631,7.308V505.433h0Z" transform="translate(-86.955 -46.552)" fill="#0c0c18" stroke="#f9c738" stroke-linecap="square" stroke-linejoin="round" stroke-width="1"/><path d="M936.234,325.368l-25.263,14.616-63.879-36.09,25.894-14.977ZM721.5,201.4v29.142l101.051,58.375,25.263-14.526Z" transform="translate(-70.532 -19.688)" fill="#0c0c18" stroke="#f9c738" stroke-linecap="square" stroke-linejoin="round" stroke-width="1"/><path d="M676.773,373.076,651.6,387.693V241.8l25.173,14.616Z" transform="translate(-63.699 -23.638)" fill="#0c0c18" stroke="#f9c738" stroke-linecap="square" stroke-linejoin="round" stroke-width="1"/><path d="M942.032,331.1h0l-50.526,29.142V331.1l25.624-14.436-50.887-29.413,25.263-14.526,75.788,43.759Zm-75.788-72.9L739.93,185.3l-25.263,14.616,126.314,72.991Zm-189.471-7.308,63.157-36.451-25.263-14.526L651.6,236.367Z" transform="translate(-63.699 -18.114)" fill="#0c0c18" stroke="#f9c738" stroke-linecap="square" stroke-linejoin="round" stroke-width="1"/><path d="M679.5,370.711l25.263-14.526V268.667l37.894-21.925V217.6L679.5,254.051Z" transform="translate(-66.426 -21.271)" fill="#0c0c18" stroke="#f9c738" stroke-linecap="square" stroke-linejoin="round" stroke-width="1"/><path d="M553.5,590.675l164.208-94.916V524.9L553.5,619.817ZM780.865,488.451V473.834l25.263-14.616L793.5,452l-50.526,29.052v29.142Z" transform="translate(-54.108 -44.187)" fill="#0c0c18" stroke="#f9c738" stroke-linecap="square" stroke-linejoin="round" stroke-width="1"/><path d="M762.131,447.259l25.263-14.616.361-14.526,12.451,7.128,25.082-14.436L812.837,403.5l-25.082,14.616L749.5,440.492V542.626l12.631-7.4Z" transform="translate(-73.269 -39.445)" fill="#0c0c18" stroke="#f9c738" stroke-linecap="square" stroke-linejoin="round" stroke-width="1"/><path d="M722.128,428.644V530.778L709.5,523.47V435.411L608.445,377.035l13.443-7.759ZM469.5,282.3v87.518l12.631,7.308v-72.9l101.051,58.285,12.631-7.218Z" transform="translate(-45.897 -27.597)" fill="#0c0c18" stroke="#f9c738" stroke-linecap="square" stroke-linejoin="round" stroke-width="1"/><path d="M483.5,379.4l37.894-21.834V342.951l-25.263,14.616V313.808L483.5,306.5Z" transform="translate(-47.266 -29.963)" fill="#0c0c18" stroke="#f9c738" stroke-linecap="square" stroke-linejoin="round" stroke-width="1"/><path d="M777.5,346.108l12.631,7.308V338.8Z" transform="translate(-76.006 -33.12)" fill="#0c0c18" stroke="#f9c738" stroke-linecap="square" stroke-linejoin="round" stroke-width="1"/><path d="M785.466,385.307,772.654,378l-50.526,29.142-88.51-50.977-11.729,6.767L722.128,422.3Zm-177.11-43.759-12.541,7.308L469.5,275.956l12.631-7.308Zm139.216,50.886,63.518,36.631,12.361-7.489-63.7-36.18Zm63.067-7.037,12.541,7.218L798.1,407.232l-12.812-7.308ZM608.445,254.031l50.616-29.142L646.43,217.4l-63.157,36.631,240,138.585,12.631-7.308Z" transform="translate(-45.897 -21.252)" fill="#0c0c18" stroke="#f9c738" stroke-linecap="square" stroke-linejoin="round" stroke-width="1"/><path d="M595.6,258l.271,73.172,12.361,7.038.09-58.285,202.012,116.66,12.722-7.218-37.984-22.015V279.834l-12.631-7.218v29.142l-63.157-36.451-12.722,7.308,75.879,43.759v43.759Z" transform="translate(-58.224 -25.222)" fill="#0c0c18" stroke="#f9c738" stroke-linecap="square" stroke-linejoin="round" stroke-width="1"/><path d="M623.5,256.416l12.631,7.308,12.722-7.308V241.8Z" transform="translate(-60.952 -23.638)" fill="#0c0c18" stroke="#f9c738" stroke-linecap="square" stroke-linejoin="round" stroke-width="1"/><path d="M650.131,759.1,637.5,766.408l25.263,14.616V766.5Z" transform="translate(-62.32 -74.207)" fill="#0c0c18" stroke="#f9c738" stroke-linecap="square" stroke-linejoin="round" stroke-width="1"/><path d="M749.5,660.718l88.42-51.157V580.508l-63.067,36.36-.09-43.669L749.5,587.816Z" transform="translate(-73.269 -56.034)" fill="#0c0c18" stroke="#f9c738" stroke-linecap="square" stroke-linejoin="round" stroke-width="1"/><path d="M746.763,660.718,721.5,646.191V573.2l25.263,14.616Z" transform="translate(-70.532 -56.034)" fill="#0c0c18" stroke="#f9c738" stroke-linecap="square" stroke-linejoin="round" stroke-width="1"/><path d="M721.5,571.626,746.763,557.1l25.263,14.526-25.263,14.616Z" transform="translate(-70.532 -54.461)" fill="#0c0c18" stroke="#f9c738" stroke-linecap="square" stroke-linejoin="round" stroke-width="1"/><path d="M777.5,587.034l.09,29.052,63.067-36.36L815.394,565.2Z" transform="translate(-76.006 -55.252)" fill="#0c0c18" stroke="#f9c738" stroke-linecap="square" stroke-linejoin="round" stroke-width="1"/><path d="M916.445,624.267l-25.263,14.616L777.5,573.2v14.616l113.683,65.593,37.894-21.834Z" transform="translate(-76.006 -56.034)" fill="#0c0c18" stroke="#f9c738" stroke-linecap="square" stroke-linejoin="round" stroke-width="1"/><path d="M633.889,506.326l-12.812,7.4-138.945-80.3V491.8L469.5,484.491V411.5Z" transform="translate(-45.897 -40.227)" fill="#0c0c18" stroke="#f9c738" stroke-linecap="square" stroke-linejoin="round" stroke-width="1"/><path d="M497.68,458.516,522.763,443.9l12.631,7.4L497.5,473.042Z" transform="translate(-48.634 -43.395)" fill="#0c0c18" stroke="#f9c738" stroke-linecap="square" stroke-linejoin="round" stroke-width="1"/><path d="M609.59,282.3l12.451,7.218v58.375L609.5,340.585Z" transform="translate(-59.583 -27.597)" fill="#0c0c18" stroke="#f9c738" stroke-linecap="square" stroke-linejoin="round" stroke-width="1"/><path d="M882.971,651.053V665.67L769.288,599.987V585.37ZM693.5,556.318l25.263,14.616,12.631-7.308L706.131,549.1Z" transform="translate(-67.794 -53.679)" fill="#0c0c18" stroke="#f9c738" stroke-linecap="square" stroke-linejoin="round" stroke-width="1"/><path d="M707.5,548.208l25.263,14.526,12.631-7.218L720.222,540.9Z" transform="translate(-69.163 -52.877)" fill="#0c0c18" stroke="#f9c738" stroke-linecap="square" stroke-linejoin="round" stroke-width="1"/><path d="M843.708,523.918,831.167,516.7,692.131,596.549,679.5,603.857V779.162l12.631-7.218v-160.6Z" transform="translate(-66.426 -50.511)" fill="#0c0c18" stroke="#f9c738" stroke-linecap="square" stroke-linejoin="round" stroke-width="1"/><path d="M665.5,596.117l12.631,6.947L829.8,515.908,817.077,508.6Z" transform="translate(-65.057 -49.719)" fill="#0c0c18" stroke="#f9c738" stroke-linecap="square" stroke-linejoin="round" stroke-width="1"/><path d="M839.269,144.6,763.3,188.449l12.812,7.4,63.157-37.172,50.526,29.864,12.631-7.218Z" transform="translate(-74.618 -14.136)" fill="#0c0c18" stroke="#f9c738" stroke-linecap="square" stroke-linejoin="round" stroke-width="1"/><path d="M777.5,197.372l12.631,7.308,50.526-29.954V160.2Z" transform="translate(-76.006 -15.661)" fill="#0c0c18" stroke="#f9c738" stroke-linecap="square" stroke-linejoin="round" stroke-width="1"/><path d="M427.6,587.306v43.578l12.631-7.308V594.434l151.487-87.427.18-14.707Z" transform="translate(-41.801 -48.126)" fill="#0c0c18" stroke="#f9c738" stroke-linecap="square" stroke-linejoin="round" stroke-width="1"/><path d="M413.69,589.5l-.09,58.195,38.075,21.924V655l-25.443-14.8v-43.4Z" transform="translate(-40.432 -57.628)" fill="#0c0c18" stroke="#f9c738" stroke-linecap="square" stroke-linejoin="round" stroke-width="1"/><path d="M440.231,635.444,427.6,642.752l25.443,14.616,62.886-36.36L503.3,613.7l-50.435,29.052Z" transform="translate(-41.801 -59.993)" fill="#0c0c18" stroke="#f9c738" stroke-linecap="square" stroke-linejoin="round" stroke-width="1"/><path d="M718.763,443.9,693.5,458.516l12.541,7.308,25.353-14.616Z" transform="translate(-67.794 -43.395)" fill="#0c0c18" stroke="#f9c738" stroke-linecap="square" stroke-linejoin="round" stroke-width="1"/><path d="M707.4,466.616v14.616l25.353-14.616V452Z" transform="translate(-69.153 -44.187)" fill="#0c0c18" stroke="#f9c738" stroke-linecap="square" stroke-linejoin="round" stroke-width="1"/><path d="M693.49,460.1l-.09,14.616,12.631,7.308V467.408Z" transform="translate(-67.785 -44.979)" fill="#0c0c18" stroke="#f9c738" stroke-linecap="square" stroke-linejoin="round" stroke-width="1"/><path d="M594.131,209.6,581.5,216.908l12.631,7.218,12.631-7.218Z" transform="translate(-56.846 -20.49)" fill="#0c0c18" stroke="#f9c738" stroke-linecap="square" stroke-linejoin="round" stroke-width="1"/><path d="M595.5,224.918v14.616l12.631-7.308V217.7Z" transform="translate(-58.214 -21.281)" fill="#0c0c18" stroke="#f9c738" stroke-linecap="square" stroke-linejoin="round" stroke-width="1"/><path d="M581.5,217.7v14.526l12.631,7.308V224.918Z" transform="translate(-56.846 -21.281)" fill="#0c0c18" stroke="#f9c738" stroke-linecap="square" stroke-linejoin="round" stroke-width="1"/><path d="M468.131,217.6,455.5,224.908l25.263,14.616,12.631-7.308Z" transform="translate(-44.528 -21.271)" fill="#0c0c18" stroke="#f9c738" stroke-linecap="square" stroke-linejoin="round" stroke-width="1"/><path d="M483.5,241.108v14.616l12.631-7.308V233.8Z" transform="translate(-47.266 -22.855)" fill="#0c0c18" stroke="#f9c738" stroke-linecap="square" stroke-linejoin="round" stroke-width="1"/><path d="M455.5,225.7v14.526l25.263,14.707V240.316Z" transform="translate(-44.528 -22.063)" fill="#0c0c18" stroke="#f9c738" stroke-linecap="square" stroke-linejoin="round" stroke-width="1"/><path d="M774.763,654.1,749.5,668.716l12.631,7.308,25.263-14.616Z" transform="translate(-73.269 -63.943)" fill="#0c0c18" stroke="#f9c738" stroke-linecap="square" stroke-linejoin="round" stroke-width="1"/><path d="M763.5,676.816v14.616l25.263-14.707V662.2Z" transform="translate(-74.638 -64.734)" fill="#0c0c18" stroke="#f9c738" stroke-linecap="square" stroke-linejoin="round" stroke-width="1"/><path d="M749.5,670.3v14.616l12.631,7.308V677.608Z" transform="translate(-73.269 -65.526)" fill="#0c0c18" stroke="#f9c738" stroke-linecap="square" stroke-linejoin="round" stroke-width="1"/><path d="M384.131,492.4,371.5,499.708l12.631,7.218,12.631-7.218Z" transform="translate(-36.317 -48.136)" fill="#0c0c18" stroke="#f9c738" stroke-linecap="square" stroke-linejoin="round" stroke-width="1"/><path d="M371.5,500.5v43.669l12.631,7.308V507.718Z" transform="translate(-36.317 -48.928)" fill="#0c0c18" stroke="#f9c738" stroke-linecap="square" stroke-linejoin="round" stroke-width="1"/><path d="M651.59,452.1l-.09,14.616,37.984,21.925,12.451-7.4Z" transform="translate(-63.688 -44.196)" fill="#0c0c18" stroke="#f9c738" stroke-linecap="square" stroke-linejoin="round" stroke-width="1"/><path d="M898.026,248.439l-12.631,7.308V197.372L847.5,175.358V160.2l37.894,22.556v.09l12.631,7.218Z" transform="translate(-82.849 -15.661)" fill="#0c0c18" stroke="#f9c738" stroke-linecap="square" stroke-linejoin="round" stroke-width="1"/><path d="M903.5,250.893l12.631-7.308V185.3L903.5,192.518Z" transform="translate(-88.324 -18.114)" fill="#0c0c18" stroke="#f9c738" stroke-linecap="square" stroke-linejoin="round" stroke-width="1"/><path d="M805.6,282.2l12.541,7.308V362.5L805.6,369.718Z" transform="translate(-78.753 -27.587)" fill="#0c0c18" stroke="#f9c738" stroke-linecap="square" stroke-linejoin="round" stroke-width="1"/><path d="M861.6,248.416l12.451,7.218,12.722-7.308V233.8Z" transform="translate(-84.228 -22.855)" fill="#0c0c18" stroke="#f9c738" stroke-linecap="square" stroke-linejoin="round" stroke-width="1"/><path d="M413.5,553.913l.09-29.413,126.224,73.172v29.143Z" transform="translate(-40.422 -51.273)" fill="#0c0c18" stroke="#f9c738" stroke-linecap="square" stroke-linejoin="round" stroke-width="1"/><path d="M861.5,475.528v87.427l12.631,7.308V468.4Z" transform="translate(-84.218 -45.789)" fill="#0c0c18" stroke="#f9c738" stroke-linecap="square" stroke-linejoin="round" stroke-width="1"/><path d="M754.558,431.841l25.263,14.707L729.295,475.6V446.457ZM539.824,555.9,464.035,512.14l37.894-21.924,37.894-21.924-12.631-7.4-50.526,29.323-12.722-7.4L413.6,511.96l126.134,73.172L565,570.516l138.945-80.209V461.164Zm37.984-138.675,25.173,14.616-37.894,21.924-25.173-14.616Zm25.173-14.616,12.541-7.308,12.722,7.308-12.722,7.218Z" transform="translate(-40.432 -38.644)" fill="#0c0c18" stroke="#f9c738" stroke-linecap="square" stroke-linejoin="round" stroke-width="1"/><path d="M545.288,470.667l25.263,14.616-75.608,43.849L469.5,514.426Zm50.706,0,12.451-7.218V434.216l-37.894,21.924Zm37.714-36.451.09,14.707L671.693,427l-12.631-7.4Z" transform="translate(-45.897 -41.019)" fill="#0c0c18" stroke="#f9c738" stroke-linecap="square" stroke-linejoin="round" stroke-width="1"/><path d="M633.889,500.8,469.5,405.977,557.83,355l12.451,7.218-75.428,43.849,151.4,87.518ZM583.544,471.75,469.5,537.343l12.631,7.308,113.863-65.683Z" transform="translate(-45.897 -34.704)" fill="#0c0c18" stroke="#f9c738" stroke-linecap="square" stroke-linejoin="round" stroke-width="1"/><path d="M469.5,557.1v72.991l12.631,7.218V564.318Z" transform="translate(-45.897 -54.461)" fill="#0c0c18" stroke="#f9c738" stroke-linecap="square" stroke-linejoin="round" stroke-width="1"/><path d="M693.5,654.1l63.157,36.541v14.346L693.5,668.716Z" transform="translate(-67.794 -63.943)" fill="#0c0c18" stroke="#f9c738" stroke-linecap="square" stroke-linejoin="round" stroke-width="1"/><path d="M525.5,670.2v14.616l63.157,36.451V706.651Z" transform="translate(-51.372 -65.517)" fill="#0c0c18" stroke="#f9c738" stroke-linecap="square" stroke-linejoin="round" stroke-width="1"/><path d="M682.551,656.086v14.526l76.059,43.849V626.944L581.5,524.9v29.052l12.722-7.308,151.487,87.608v58.1Z" transform="translate(-56.846 -51.313)" fill="#0c0c18" stroke="#f9c738" stroke-linecap="square" stroke-linejoin="round" stroke-width="1"/><path d="M595.5,721.277l63.157-36.451V670.3L595.5,706.66Z" transform="translate(-58.214 -65.526)" fill="#0c0c18" stroke="#f9c738" stroke-linecap="square" stroke-linejoin="round" stroke-width="1"/><path d="M753.136,626.142,576.026,524.1l12.631-7.4,177.11,102.224ZM651.814,640.668l-63.157,36.451-37.894-21.834,126.494-72.811-12.631-7.308L525.5,655.284l63.157,36.451,63.157-36.36Z" transform="translate(-51.372 -50.511)" fill="#0c0c18" stroke="#f9c738" stroke-linecap="square" stroke-linejoin="round" stroke-width="1"/><path d="M679.814,603.675l.181-14.075L553.5,662.321l12.541,7.308Z" transform="translate(-54.108 -57.638)" fill="#0c0c18" stroke="#f9c738" stroke-linecap="square" stroke-linejoin="round" stroke-width="1"/><path d="M791.8,674.18V659.564L829.6,638l12.992,7.489Z" transform="translate(-77.404 -62.369)" fill="#0c0c18" stroke="#f9c738" stroke-linecap="square" stroke-linejoin="round" stroke-width="1"/><path d="M861.5,613.792l12.631,7.4,126.4-73.082L987.814,540.8Z" transform="translate(-84.218 -52.867)" fill="#0c0c18" stroke="#f9c738" stroke-linecap="square" stroke-linejoin="round" stroke-width="1"/><path d="M777.8,623.767l12.631-7.218v87.427L777.8,711.284Zm88.149-7.308,12.631,7.218,126.314-72.9V492.4l-12.541,7.308v43.759Zm-75.518,43.488v14.616l62.977-36.27-12.18-7.037" transform="translate(-76.036 -48.136)" fill="#0c0c18" stroke="#f9c738" stroke-linecap="square" stroke-linejoin="round" stroke-width="1"/><path d="M889.5,426.808l12.631-7.308,37.894,22.015-.09,14.616Z" transform="translate(-86.955 -41.009)" fill="#0c0c18" stroke="#f9c738" stroke-linecap="square" stroke-linejoin="round" stroke-width="1"/><path d="M973.5,475.438l12.992-7.038,37.533,21.654-12.541,7.308Z" transform="translate(-95.167 -45.789)" fill="#0c0c18" stroke="#f9c738" stroke-linecap="square" stroke-linejoin="round" stroke-width="1"/><path d="M888.131,427.6,875.5,435l50.706,29.052,12.361-7.128Z" transform="translate(-85.586 -41.801)" fill="#0c0c18" stroke="#f9c738" stroke-linecap="square" stroke-linejoin="round" stroke-width="1"/><path d="M973.5,476.2v14.616l25.263,14.526v29.142l12.722,7.308V498.125Z" transform="translate(-95.167 -46.552)" fill="#0c0c18" stroke="#f9c738" stroke-linecap="square" stroke-linejoin="round" stroke-width="1"/><path d="M371.5,318.741,434.657,282.2l12.631,7.308-50.526,29.233,25.263,14.526v14.616Z" transform="translate(-36.317 -27.587)" fill="#0c0c18" stroke="#f9c738" stroke-linecap="square" stroke-linejoin="round" stroke-width="1"/><path d="M450.026,290.3v14.616l-37.894,21.924L399.5,319.533Zm-12.631,80.209,12.631-7.308V304.826l-12.631,7.308Z" transform="translate(-39.054 -28.379)" fill="#0c0c18" stroke="#f9c738" stroke-linecap="square" stroke-linejoin="round" stroke-width="1"/><path d="M385.5,378.418l75.788,43.849V407.56L398.131,371.2Z" transform="translate(-37.686 -36.287)" fill="#0c0c18" stroke="#f9c738" stroke-linecap="square" stroke-linejoin="round" stroke-width="1"/><path d="M384.131,372.885V343.742l50.526,29.142V314.6l-12.631,7.308v29.142L371.5,321.908v58.375l12.631,7.218,75.788,44.12V416.734Z" transform="translate(-36.317 -30.754)" fill="#0c0c18" stroke="#f9c738" stroke-linecap="square" stroke-linejoin="round" stroke-width="1"/><path d="M483.5,161v43.759l37.894,22.015V212.157l-25.263-14.707V168.308Z" transform="translate(-47.266 -15.739)" fill="#0c0c18" stroke="#f9c738" stroke-linecap="square" stroke-linejoin="round" stroke-width="1"/><path d="M497.5,194.293l12.631-7.308V172.459l50.526-29.142V128.7L497.5,165.151Z" transform="translate(-48.634 -12.581)" fill="#0c0c18" stroke="#f9c738" stroke-linecap="square" stroke-linejoin="round" stroke-width="1"/><path d="M510.131,193.3,497.5,200.608l25.353,14.616,12.631-7.308Z" transform="translate(-48.634 -18.896)" fill="#0c0c18" stroke="#f9c738" stroke-linecap="square" stroke-linejoin="round" stroke-width="1"/><path d="M728.951,104.4,589.826,184.79,539.3,213.842V345.118l12.9-7.4V220.97l37.8-21.654L716.32,126.325v58.285l12.631-7.218Z" transform="translate(-52.72 -10.206)" fill="#0c0c18" stroke="#f9c738" stroke-linecap="square" stroke-linejoin="round" stroke-width="1"/><path d="M538.131,429.176l-12.631-7.4.18-29.233,12.451-7.218Zm-.18-204.268L525.5,217.6V363.4l12.451-7.218Z" transform="translate(-51.372 -21.271)" fill="#0c0c18" stroke="#f9c738" stroke-linecap="square" stroke-linejoin="round" stroke-width="1"/><path d="M714.971,96.3,575.845,176.69,525.5,205.742l12.451,7.308L588.477,184,727.6,103.608Z" transform="translate(-51.372 -9.414)" fill="#0c0c18" stroke="#f9c738" stroke-linecap="square" stroke-linejoin="round" stroke-width="1"/><path d="M559.288,112.6,483.5,156.269l12.631,7.308,63.157-36.451,126.314,72.9,12.631-7.308Z" transform="translate(-47.266 -11.008)" fill="#0c0c18" stroke="#f9c738" stroke-linecap="square" stroke-linejoin="round" stroke-width="1"/><path d="M567.5,128.7v14.616l113.683,65.593,12.631-7.308Z" transform="translate(-55.477 -12.581)" fill="#0c0c18" stroke="#f9c738" stroke-linecap="square" stroke-linejoin="round" stroke-width="1"/><path d="M384.131,233.8,371.5,241.018l12.631,7.308,12.631-7.308Z" transform="translate(-36.317 -22.855)" fill="#0c0c18" stroke="#f9c738" stroke-linecap="square" stroke-linejoin="round" stroke-width="1"/><path d="M385.5,249.108v14.616l12.631-7.308V241.8Z" transform="translate(-37.686 -23.638)" fill="#0c0c18" stroke="#f9c738" stroke-linecap="square" stroke-linejoin="round" stroke-width="1"/><path d="M371.5,241.8v14.616l12.631,7.308V249.108Z" transform="translate(-36.317 -23.638)" fill="#0c0c18" stroke="#f9c738" stroke-linecap="square" stroke-linejoin="round" stroke-width="1"/><path d="M367.394,532.8,329.5,554.724l12.631,7.218,37.894-21.834Z" transform="translate(-32.211 -52.085)" fill="#0c0c18" stroke="#f9c738" stroke-linecap="square" stroke-linejoin="round" stroke-width="1"/><path d="M394.026,500.5l-12.631,7.218v29.233L343.5,558.785V573.4l37.894-21.834v-.09l12.631-7.218Z" transform="translate(-33.58 -48.928)" fill="#0c0c18" stroke="#f9c738" stroke-linecap="square" stroke-linejoin="round" stroke-width="1"/><path d="M329.5,557.1v14.526l12.631,7.308V564.318Z" transform="translate(-32.211 -54.461)" fill="#0c0c18" stroke="#f9c738" stroke-linecap="square" stroke-linejoin="round" stroke-width="1"/><path d="M774.873,751.3,749.7,765.916l12.541,7.308L787.5,758.608Z" transform="translate(-73.289 -73.445)" fill="#0c0c18" stroke="#f9c738" stroke-linecap="square" stroke-linejoin="round" stroke-width="1"/><path d="M763.6,774.016v14.526l25.263-14.526V759.4Z" transform="translate(-74.647 -74.236)" fill="#0c0c18" stroke="#f9c738" stroke-linecap="square" stroke-linejoin="round" stroke-width="1"/><path d="M749.69,767.5l-.09,14.526,12.631,7.308V774.808Z" transform="translate(-73.279 -75.028)" fill="#0c0c18" stroke="#f9c738" stroke-linecap="square" stroke-linejoin="round" stroke-width="1"/><path d="M748.331,735,735.7,742.308l12.631,7.218,12.631-7.218Z" transform="translate(-71.92 -71.852)" fill="#0c0c18" stroke="#f9c738" stroke-linecap="square" stroke-linejoin="round" stroke-width="1"/><path d="M749.7,750.318v14.616l12.631-7.308V743.1Z" transform="translate(-73.289 -72.644)" fill="#0c0c18" stroke="#f9c738" stroke-linecap="square" stroke-linejoin="round" stroke-width="1"/><path d="M735.7,743.1v14.526l12.631,7.308V750.318Z" transform="translate(-71.92 -72.644)" fill="#0c0c18" stroke="#f9c738" stroke-linecap="square" stroke-linejoin="round" stroke-width="1"/><path d="M832.131,540.9,819.5,548.208l12.631,7.308,12.631-7.308Z" transform="translate(-80.112 -52.877)" fill="#0c0c18" stroke="#f9c738" stroke-linecap="square" stroke-linejoin="round" stroke-width="1"/><path d="M833.5,556.308v14.526l12.631-7.218V549Z" transform="translate(-81.48 -53.669)" fill="#0c0c18" stroke="#f9c738" stroke-linecap="square" stroke-linejoin="round" stroke-width="1"/><path d="M819.5,549v14.526l12.631,7.308V556.308Z" transform="translate(-80.112 -53.669)" fill="#0c0c18" stroke="#f9c738" stroke-linecap="square" stroke-linejoin="round" stroke-width="1"/><path d="M748.131,379.2,735.5,386.508l12.631,7.308,12.631-7.308Z" transform="translate(-71.9 -37.069)" fill="#0c0c18" stroke="#f9c738" stroke-linecap="square" stroke-linejoin="round" stroke-width="1"/><path d="M749.5,394.608v14.526l12.631-7.218V387.3Z" transform="translate(-73.269 -37.861)" fill="#0c0c18" stroke="#f9c738" stroke-linecap="square" stroke-linejoin="round" stroke-width="1"/><path d="M734.151,387.3,721.7,394.7l25.082,14.436V394.608Z" transform="translate(-70.551 -37.861)" fill="#0c0c18" stroke="#f9c738" stroke-linecap="square" stroke-linejoin="round" stroke-width="1"/><path d="M566.131,290.3,553.5,297.608l12.631,7.218,12.631-7.218Z" transform="translate(-54.108 -28.379)" fill="#0c0c18" stroke="#f9c738" stroke-linecap="square" stroke-linejoin="round" stroke-width="1"/><path d="M567.5,305.618v14.616l12.631-7.308V298.4Z" transform="translate(-55.477 -29.171)" fill="#0c0c18" stroke="#f9c738" stroke-linecap="square" stroke-linejoin="round" stroke-width="1"/><path d="M553.5,298.4v14.526l12.631,7.308V305.618Z" transform="translate(-54.108 -29.171)" fill="#0c0c18" stroke="#f9c738" stroke-linecap="square" stroke-linejoin="round" stroke-width="1"/><path d="M986.131,225.7,973.5,233.008l12.631,7.218,12.631-7.218Z" transform="translate(-95.167 -22.063)" fill="#0c0c18" stroke="#f9c738" stroke-linecap="square" stroke-linejoin="round" stroke-width="1"/><path d="M987.5,241.018v14.616l12.631-7.308V233.8Z" transform="translate(-96.535 -22.855)" fill="#0c0c18" stroke="#f9c738" stroke-linecap="square" stroke-linejoin="round" stroke-width="1"/><path d="M973.5,233.8v14.526l12.631,7.308V241.018Z" transform="translate(-95.167 -22.855)" fill="#0c0c18" stroke="#f9c738" stroke-linecap="square" stroke-linejoin="round" stroke-width="1"/><path d="M874.131,678.3,861.5,685.608l25.263,14.616,12.631-7.218Z" transform="translate(-84.218 -66.309)" fill="#0c0c18" stroke="#f9c738" stroke-linecap="square" stroke-linejoin="round" stroke-width="1"/><path d="M889.5,701.818v14.616l12.631-7.308V694.6Z" transform="translate(-86.955 -67.902)" fill="#0c0c18" stroke="#f9c738" stroke-linecap="square" stroke-linejoin="round" stroke-width="1"/><path d="M861.5,686.4v14.616l25.263,14.616V701.016Z" transform="translate(-84.218 -67.101)" fill="#0c0c18" stroke="#f9c738" stroke-linecap="square" stroke-linejoin="round" stroke-width="1"/><path d="M480.792,557.993v72.991l12.631-7.308V550.685Zm37.894,51.067,12.541,7.308L455.8,660.127V645.511Zm-25.263-58.285L594.655,492.4l-.18,14.707L493.424,565.482" transform="translate(-44.558 -48.136)" fill="#0c0c18" stroke="#f9c738" stroke-linecap="square" stroke-linejoin="round" stroke-width="1"/><path d="M413.7,587.907l12.541,7.308L451.414,580.6l-12.722-7.4Z" transform="translate(-40.442 -56.034)" fill="#0c0c18" stroke="#f9c738" stroke-linecap="square" stroke-linejoin="round" stroke-width="1"/><path d="M571.739,363l12.812,7.308-75.879,43.849-12.451-7.308ZM483.5,487.058l63.157-36.631V392.233l-12.631,7.308V443.39l-37.894,21.834.18-29.052-12.812-7.4Z" transform="translate(-47.266 -35.486)" fill="#0c0c18" stroke="#f9c738" stroke-linecap="square" stroke-linejoin="round" stroke-width="1"/><path d="M385.5,376.042l12.631-7.218V354.208L385.5,346.9Z" transform="translate(-37.686 -33.912)" fill="#0c0c18" stroke="#f9c738" stroke-linecap="square" stroke-linejoin="round" stroke-width="1"/><path d="M720.312,362.218,707.5,355v14.616Z" transform="translate(-69.163 -34.704)" fill="#0c0c18" stroke="#f9c738" stroke-linecap="square" stroke-linejoin="round" stroke-width="1"/><path d="M875.5,403.5v14.616l12.631-7.308Z" transform="translate(-85.586 -39.445)" fill="#0c0c18" stroke="#f9c738" stroke-linecap="square" stroke-linejoin="round" stroke-width="1"/><path d="M384.131,443.9,371.5,451.208l25.263,14.616,12.631-7.308Z" transform="translate(-36.317 -43.395)" fill="#0c0c18" stroke="#f9c738" stroke-linecap="square" stroke-linejoin="round" stroke-width="1"/><path d="M399.5,467.408v14.616l12.631-7.308V460.1Z" transform="translate(-39.054 -44.979)" fill="#0c0c18" stroke="#f9c738" stroke-linecap="square" stroke-linejoin="round" stroke-width="1"/><path d="M371.5,452v14.616l25.263,14.616V466.616Z" transform="translate(-36.317 -44.187)" fill="#0c0c18" stroke="#f9c738" stroke-linecap="square" stroke-linejoin="round" stroke-width="1"/><path d="M734.131,128.7,721.5,136.008v58.285l12.631-7.308Z" transform="translate(-70.532 -12.581)" fill="#0c0c18" stroke="#f9c738" stroke-linecap="square" stroke-linejoin="round" stroke-width="1"/><path d="M497.5,359.942l25.263-14.616V330.8L497.5,345.326Z" transform="translate(-48.634 -32.338)" fill="#0c0c18" stroke="#f9c738" stroke-linecap="square" stroke-linejoin="round" stroke-width="1"/><path d="M469.544,153.5l-9.383-5.413.451-.812L470,152.693Zm-15.609-9.022-9.383-5.413.451-.812,9.383,5.413Zm-15.609-9.022-9.383-5.413.451-.812,9.383,5.413Zm-15.609-9.022-9.383-5.413.451-.812,9.383,5.413Zm-15.609-9.022L397.725,112l.451-.812,9.383,5.413Zm-15.7-9.022-9.383-5.413.451-.812,9.383,5.413ZM375.8,99.37l-9.383-5.413.451-.812,9.383,5.413Zm-15.609-9.022-9.383-5.413.451-.812,9.383,5.413Zm-15.609-9.022L335.2,75.912l.451-.812,9.383,5.413Z" transform="translate(-32.768 -7.342)" fill="#0c0c18" stroke="#f9c738" stroke-linecap="square" stroke-linejoin="round" stroke-width="1"/><path d="M298.227,313.228l-9.383-5.413L289.3,307l9.383,5.413Zm-15.609-9.022-9.383-5.413.451-.812,9.383,5.413Zm-15.609-9.022-9.383-5.413.451-.812,9.383,5.413ZM251.4,286.161l-9.383-5.413.451-.812,9.383,5.413Zm-15.609-9.022-9.383-5.413.451-.812,9.383,5.413Zm-15.609-9.113-9.383-5.413.451-.812,9.383,5.413Z" transform="translate(-20.607 -25.593)" fill="#0c0c18" stroke="#f9c738" stroke-linecap="square" stroke-linejoin="round" stroke-width="1"/><line x1="25.263" y1="14.616" transform="translate(537.195 597.465)" stroke-dasharray="12 8" stroke="#f9c738" stroke-linecap="square" stroke-miterlimit="10" stroke-width="1" fill="none"/><line x1="101.051" y2="58.375" transform="translate(373.078 619.119)" stroke-dasharray="12 8" stroke="#f9c738" stroke-linecap="square" stroke-miterlimit="10" stroke-width="1" fill="none"/><line x1="37.894" y2="21.925" transform="translate(367.123 615.69)" fill="none" stroke="#f9c738" stroke-linecap="square" stroke-miterlimit="10" stroke-width="1"/><path d="M.451,811.855,0,811.133,298.1,637v15.7l-13.083,7.489-9.474-5.413.451-.812,9.022,5.233,12.18-7.037V638.624Z" transform="translate(0 -62.271)" fill="url(#a)"/><path d="M324.637,635.665,314.531,629.8,301.9,637.108l10.466,6.045" transform="translate(-29.513 -61.567)" fill="#0c0c18" stroke="#f9c738" stroke-linecap="square" stroke-linejoin="round" stroke-miterlimit="10" stroke-width="1"/><line y2="11.278" transform="translate(272.387 575.541)" fill="none" stroke="#f9c738" stroke-linecap="square" stroke-miterlimit="10" stroke-width="1"/><path d="M414.341,456.1l-6.316,3.7v29.142l-25.263,14.616L357.59,488.942,357.5,459.8l25.263,14.526V496.16" transform="translate(-34.948 -44.587)" fill="none" stroke="#f9c738" stroke-linecap="square" stroke-linejoin="round" stroke-miterlimit="10" stroke-width="1"/><path d="M605.54,101.632l-.18-.18L432.4,1.212,432.851.4,605.54,100.549l12.451-7.218.451.812Z" transform="translate(-42.27 -0.039)" fill="#0c0c18" stroke="#f9c738" stroke-linecap="square" stroke-linejoin="round" stroke-width="1"/><path d="M236.551,914.147l-.451-.722L560.1,726.3l.451.812Z" transform="translate(-23.081 -71.001)" fill="url(#b)"/><path d="M1015.118,838.638,857.5,747.692l-25.263,14.526L818.7,754.459l13.083-7.579V732.8L819.151,725.5V710.7h.9v14.255l12.631,7.308v15.158l-12.18,7.038,11.729,6.767L857.5,746.609l.18.09,157.893,91.217Z" transform="translate(-80.034 -69.476)" fill="url(#c)"/><line y2="25.082" transform="translate(752.2 696.352)" fill="none" stroke="#f9c738" stroke-linecap="square" stroke-miterlimit="10" stroke-width="1"/><path d="M903.8,693.708l12.541-7.308v14.616" transform="translate(-88.353 -67.101)" fill="none" stroke="#f9c738" stroke-linecap="square" stroke-linejoin="round" stroke-miterlimit="10" stroke-width="1"/><path d="M506.34,335.052,354.763,246V232.918L342.131,225.7,329.5,232.918l12.631,7.308v14.526l11.278-7.218" transform="translate(-32.211 -22.063)" fill="none" stroke="#f9c738" stroke-linecap="square" stroke-linejoin="round" stroke-miterlimit="10" stroke-width="1"/><line x1="176.93" y2="103.036" transform="translate(499.843 64.06)" fill="none" stroke="#f9c738" stroke-linecap="square" stroke-miterlimit="10" stroke-width="1"/><line x1="25.263" y1="14.616" transform="translate(916.228 408.355)" fill="none" stroke="#f9c738" stroke-linecap="square" stroke-miterlimit="10" stroke-width="1"/><path d="M366.035,322.7,315.6,351.842v65.773" transform="translate(-30.852 -31.546)" fill="none" stroke="#f9c738" stroke-linecap="square" stroke-linejoin="round" stroke-miterlimit="10" stroke-width="1"/><line x1="25.173" y1="14.616" transform="translate(284.658 291.154)" fill="none" stroke="#f9c738" stroke-linecap="square" stroke-miterlimit="10" stroke-width="1"/><line y2="11.91" transform="translate(410.972 189.02)" fill="none" stroke="#f9c738" stroke-linecap="square" stroke-miterlimit="10" stroke-width="1"/><line y1="35.368" transform="translate(385.709 145.261)" fill="none" stroke="#f9c738" stroke-linecap="square" stroke-miterlimit="10" stroke-width="1"/><path d="M399.5,225.7l25.263,14.616v42.315" transform="translate(-39.054 -22.063)" fill="none" stroke="#f9c738" stroke-linecap="square" stroke-linejoin="round" stroke-miterlimit="10" stroke-width="1"/><line y1="7.759" x2="12.812" transform="translate(410.972 313.078)" stroke-dasharray="12 8" stroke="#f9c738" stroke-linecap="square" stroke-miterlimit="10" stroke-width="1" fill="none"/><line y2="29.142" transform="translate(461.497 320.296)" stroke-dasharray="12 8" stroke="#f9c738" stroke-linecap="square" stroke-miterlimit="10" stroke-width="1" fill="none"/><path d="M354.683,201.381,7.5.812,7.951,0,355.224,200.569Z" transform="translate(-0.733)" fill="none" stroke="#f9c738" stroke-linecap="square" stroke-linejoin="round" stroke-width="1"/><line x2="88.42" y2="51.157" transform="translate(284.748 320.296)" fill="none" stroke="#f9c738" stroke-linecap="square" stroke-miterlimit="10" stroke-width="1"/><path d="M833.814,207.134l12.631-7.308L821.183,185.3v29.233L707.5,280.035" transform="translate(-69.163 -18.114)" fill="none" stroke="#f9c738" stroke-linecap="square" stroke-linejoin="round" stroke-miterlimit="10" stroke-width="1"/><path d="M643.469,789.125,605.394,767.2,567.5,789.125h25.263v20.481" transform="translate(-55.477 -74.999)" fill="none" stroke="#f9c738" stroke-linecap="square" stroke-linejoin="round" stroke-miterlimit="10" stroke-width="1"/><path d="M539.5,786.759l37.894-21.924V750.4l12.631-7.4v14.526l12.541-7.218" transform="translate(-52.74 -72.634)" fill="none" stroke="#f9c738" stroke-linecap="square" stroke-linejoin="round" stroke-miterlimit="10" stroke-width="1"/><path d="M805.6,686.49l113.592,65.5,37.894-21.834V686.4l-37.894,21.834v29.233" transform="translate(-78.753 -67.101)" fill="none" stroke="#f9c738" stroke-linecap="square" stroke-linejoin="round" stroke-miterlimit="10" stroke-width="1"/><line x2="37.894" y2="21.925" transform="translate(865.702 684.893)" fill="none" stroke="#f9c738" stroke-linecap="square" stroke-miterlimit="10" stroke-width="1"/><path d="M912.894,187.949v-44.39l37.443-22.015-36.992-21.383L875.9,121.815v16.421H875V121.274l38.345-22.2,38.8,22.466L913.8,144.01v42.315l36.992-21.293V135.8l.271-.09L1090,55.5l.451.812L951.691,136.341v29.233Z" transform="translate(-85.538 -5.426)" fill="none" stroke="#f9c738" stroke-linecap="square" stroke-linejoin="round" stroke-width="1"/><path d="M735.751,151.048l-.451-.722L899.508,55.5l.451.812Z" transform="translate(-71.881 -5.426)" fill="#0c0c18" stroke="#f9c738" stroke-linecap="square" stroke-linejoin="round" stroke-width="1"/><path d="M889.5,102.034V87.508L902.131,80.2l50.526,29.142" transform="translate(-86.955 -7.84)" fill="none" stroke="#f9c738" stroke-linecap="square" stroke-linejoin="round" stroke-miterlimit="10" stroke-width="1" stroke-dasharray="12 8"/></g></svg>