<svg xmlns="http://www.w3.org/2000/svg" xmlns:xlink="http://www.w3.org/1999/xlink" viewBox="0 0 101.054 27">
  <defs>
    <style>
      .cls-1 {
        fill: #fff;
      }

      .cls-2 {
        fill: url(#linear-gradient);
      }
    </style>
    <linearGradient id="linear-gradient" x1="0.65" y1="0.685" x2="0.649" gradientUnits="objectBoundingBox">
      <stop offset="0" stop-opacity="0"/>
      <stop offset="0.158" stop-color="#313131" stop-opacity="0"/>
      <stop offset="1" stop-color="gray"/>
    </linearGradient>
  </defs>
  <g id="logo-stream" transform="translate(-1110 -643.371)">
    <g id="Group_3625" data-name="Group 3625" transform="translate(1110 643.371)">
      <path id="Path_22721" data-name="Path 22721" class="cls-1" d="M17.949,11.883a.835.835,0,0,0-.8-.509H9.809L12.9,8.249a.874.874,0,1,0-1.236-1.236L7.338,11.374H6.357l6.5-6.577a.855.855,0,0,0,0-1.2h0a.9.9,0,0,0-1.236,0L3.959,11.374H2.941L12.9,1.49a.855.855,0,0,0,0-1.2h0A.767.767,0,0,0,12.28,0a.851.851,0,0,0-.618.254L.252,11.629a.836.836,0,0,0-.182.945.894.894,0,0,0,.8.509H8.21l-5.16,5.16a.855.855,0,0,0,0,1.2h0a.877.877,0,0,0,1.236,0l6.359-6.359h.981l-8.5,8.649a.9.9,0,0,0,0,1.236.948.948,0,0,0,.618.254.851.851,0,0,0,.618-.254L14.1,13.082h1.017L3.05,25.546h0a.877.877,0,0,0-.254.618h0A.822.822,0,0,0,3.631,27h.036a1.031,1.031,0,0,0,.618-.254L17.731,12.791A.839.839,0,0,0,17.949,11.883Z" transform="translate(0.004 0)"/>
    </g>
    <g id="Group_3623" data-name="Group 3623" transform="translate(1136.065 649.841)">
      <path id="Path_22717" data-name="Path 22717" class="cls-1" d="M72.76,28.448a.94.94,0,0,1-.36-.72.862.862,0,0,1,.9-.864.745.745,0,0,1,.54.18,4.753,4.753,0,0,0,2.988,1.08c1.152,0,1.872-.54,1.872-1.332v-.036c0-.756-.432-1.188-2.412-1.62-2.268-.54-3.564-1.224-3.564-3.2V21.9c0-1.836,1.512-3.1,3.636-3.1a5.871,5.871,0,0,1,3.384,1.008.837.837,0,0,1,.4.756.862.862,0,0,1-.9.864.9.9,0,0,1-.5-.144,4.382,4.382,0,0,0-2.448-.792c-1.08,0-1.728.576-1.728,1.26h0c0,.828.5,1.188,2.556,1.692,2.268.54,3.42,1.368,3.42,3.132v.036c0,1.98-1.584,3.2-3.816,3.2a7.017,7.017,0,0,1-3.96-1.368m14.724-7.776H84.892a.876.876,0,0,1-.864-.864h0a.876.876,0,0,1,.864-.864h7.092a.864.864,0,0,1,0,1.728H89.392v8.064a.953.953,0,0,1-.936.936.929.929,0,0,1-.936-.936V20.672Zm14.148,3.564c1.332,0,2.2-.684,2.2-1.8V22.4c0-1.152-.828-1.764-2.2-1.764H98.9v3.6ZM97.024,19.88a.908.908,0,0,1,.936-.936h3.816a4.363,4.363,0,0,1,3.1,1.08,3.176,3.176,0,0,1,.9,2.3v.036a3.161,3.161,0,0,1-2.412,3.168l2.052,2.592a1.07,1.07,0,0,1,.288.72.883.883,0,0,1-.9.864,1.06,1.06,0,0,1-.9-.5l-2.592-3.312H98.9v2.88a.929.929,0,0,1-.936.936h0a.908.908,0,0,1-.936-.936Zm13.32,8.784V19.88a.908.908,0,0,1,.936-.936h6.192a.828.828,0,1,1,0,1.656h-5.256v2.772h4.572a.846.846,0,0,1,0,1.692h-4.572v2.88h5.364a.828.828,0,0,1,0,1.656h-6.264a.9.9,0,0,1-.972-.936m18.864-3.276-1.872-4.32-1.872,4.32Zm-6.984,3.024,3.96-8.856A1.206,1.206,0,0,1,127.3,18.8h.108a1.171,1.171,0,0,1,1.116.756l3.96,8.856a.938.938,0,0,1,.108.4.891.891,0,0,1-.9.9.929.929,0,0,1-.9-.648l-.864-1.98h-5.184l-.9,2.052a.885.885,0,0,1-.864.612.853.853,0,0,1-.864-.864v-.036a.958.958,0,0,1,.108-.432Zm14.688-8.568a.953.953,0,0,1,.936-.936h.216a1,1,0,0,1,.864.5l3.24,5.076,3.24-5.076a.931.931,0,0,1,.864-.5h.18a.953.953,0,0,1,.936.936h0v8.928a.929.929,0,0,1-.936.936.953.953,0,0,1-.936-.936V22.364l-2.592,3.924a.929.929,0,0,1-.792.5.945.945,0,0,1-.792-.5L138.748,22.4v6.372a.9.9,0,0,1-.936.9.87.87,0,0,1-.9-.9V19.844Z" transform="translate(-72.4 -18.8)"/>
    </g>
    <path id="Path_22722" data-name="Path 22722" class="cls-2" d="M8.19,13.91h2.458L9.3,15.213H6.9Z" transform="translate(1110.004 642.543)"/>
    <path id="Path_22725" data-name="Path 22725" class="cls-2" d="M8.19,13.91h2.458L9.3,15.213H6.9Z" transform="translate(1124.547 668.666) rotate(180)"/>
    <path id="Path_22723" data-name="Path 22723" class="cls-2" d="M8.633,13.918h2.458l-1.346,1.3H7.338Z" transform="translate(1113.004 642.543)"/>
    <path id="Path_22724" data-name="Path 22724" class="cls-2" d="M8.6,13.962h2.458l-1.346,1.3H7.31Z" transform="translate(1128.433 668.682) rotate(180)"/>
  </g>
</svg>
