<svg xmlns="http://www.w3.org/2000/svg" viewBox="0 0 109.275 24.195">
  <defs>
    <style>
      .cls-1 {
        fill: #fff;
      }
    </style>
  </defs>
  <g id="logo-zeppelin" transform="translate(-963 -642.617)">
    <g id="Group_3547" data-name="Group 3547" transform="translate(963 642.617)">
      <path id="Shape_1_" class="cls-1" d="M2.1,0H22.4l-2.93,4.99H2.1Z" transform="translate(-1.619)"/>
      <g id="XMLID_2_" transform="translate(0 19.182)">
        <path id="XMLID_4_" class="cls-1" d="M40.7,83.8l-6.5,5.013H47.087V83.8Z" transform="translate(-26.371 -83.8)"/>
        <path id="XMLID_3_" class="cls-1" d="M3.09,83.8,0,88.813H6.638L9.568,83.8Z" transform="translate(0 -83.8)"/>
      </g>
      <path id="XMLID_1_" class="cls-1" d="M17.122,23.059,9.179,25.348l2.06-3.548L0,41.005H6.638L17.855,21.8Z" transform="translate(0 -16.81)"/>
    </g>
    <g id="XMLID_1_2" data-name="XMLID_1_" transform="translate(993 645.871)">
      <g id="XMLID_2_2" data-name="XMLID_2_">
        <path id="XMLID_22_" class="cls-1" d="M0,20.725l5.738-7.837H0V11.8H7.125v1.087l-5.7,7.837h5.7v1.088H0Z" transform="translate(0 -7.375)"/>
        <path id="XMLID_19_" class="cls-1" d="M26.5,16.362c0-2.85,1.387-5.363,4.388-5.363,3.375,0,4.5,2.287,4.5,5.513v.112H27.775c.038,2.137.825,3.938,3.3,3.938A2.869,2.869,0,0,0,34,18.35h1.237c-.412,2.137-1.913,3.3-4.312,3.3C27.737,21.65,26.5,18.95,26.5,16.362Zm7.612-.787c0-2.062-1.05-3.488-3.187-3.488-2.062,0-3.112,1.65-3.112,3.488Z" transform="translate(-16.562 -6.875)"/>
        <path id="XMLID_16_" class="cls-1" d="M60.5,11.3h1.162v1.538H61.7A3.335,3.335,0,0,1,64.85,11c2.813,0,4.275,2.625,4.275,5.25,0,2.55-1.425,5.4-4.275,5.4a3.484,3.484,0,0,1-3.15-1.875h-.037v5.4H60.5Zm7.387,4.988c0-1.875-.863-4.2-3.037-4.2-2.25,0-3.263,2.213-3.263,4.238s1.013,4.237,3.263,4.237C67.025,20.525,67.887,18.125,67.887,16.288Z" transform="translate(-37.812 -6.875)"/>
        <path id="XMLID_13_" class="cls-1" d="M93.4,11.3h1.163v1.538H94.6A3.335,3.335,0,0,1,97.75,11c2.813,0,4.275,2.625,4.275,5.25,0,2.55-1.425,5.4-4.275,5.4a3.484,3.484,0,0,1-3.15-1.875h-.037v5.4H93.4Zm7.388,4.988c0-1.875-.862-4.2-3.037-4.2-2.25,0-3.262,2.213-3.262,4.238s1.012,4.237,3.262,4.237C99.925,20.525,100.787,18.125,100.787,16.288Z" transform="translate(-58.375 -6.875)"/>
        <path id="XMLID_10_" class="cls-1" d="M125.2,16.362c0-2.85,1.387-5.363,4.387-5.363,3.375,0,4.5,2.287,4.5,5.513v.112h-7.613c.038,2.137.825,3.938,3.3,3.938A2.869,2.869,0,0,0,132.7,18.35h1.238c-.413,2.137-1.913,3.3-4.312,3.3C126.438,21.65,125.2,18.95,125.2,16.362Zm7.65-.787c0-2.062-1.05-3.488-3.187-3.488-2.063,0-3.113,1.65-3.113,3.488Z" transform="translate(-78.25 -6.875)"/>
        <path id="XMLID_8_" class="cls-1" d="M159.8.1h1.162V14.538H159.8Z" transform="translate(-99.875 -0.062)"/>
        <path id="XMLID_5_" class="cls-1" d="M174.4,0h1.575V1.725H174.4Zm.3,4.425h1.162v10.05H174.7Z" transform="translate(-109)"/>
        <path id="XMLID_3_2" data-name="XMLID_3_" class="cls-1" d="M190.8,11.238h1.163V12.7l.038.038a3.311,3.311,0,0,1,3.075-1.837c2.362,0,3.45,1.837,3.45,4.05v6.3h-1.162V14.8a2.533,2.533,0,0,0-2.588-2.775c-1.875,0-2.812,1.725-2.812,3.45V21.25H190.8Z" transform="translate(-119.25 -6.813)"/>
      </g>
    </g>
  </g>
</svg>
