<svg xmlns="http://www.w3.org/2000/svg" viewBox="0 0 22.544 18.324">
  <defs>
    <style>
      .cls-1 {
        fill: #d8d8d8;
      }
    </style>
  </defs>
  <path id="logo-social-twitter" class="cls-1" d="M7.088,18.324A13.072,13.072,0,0,0,20.245,5.167c0-.2,0-.4-.009-.6a9.421,9.421,0,0,0,2.309-2.4,9.372,9.372,0,0,1-2.66.73A4.652,4.652,0,0,0,21.922.343a9.2,9.2,0,0,1-2.94,1.118,4.625,4.625,0,0,0-8,3.165A5.111,5.111,0,0,0,11.1,5.681,13.163,13.163,0,0,1,1.569.848,4.643,4.643,0,0,0,3,7.025,4.748,4.748,0,0,1,.9,6.448v.063a4.634,4.634,0,0,0,3.706,4.536,4.651,4.651,0,0,1-2.083.081,4.624,4.624,0,0,0,4.32,3.21A9.275,9.275,0,0,1,1.1,16.322,8.9,8.9,0,0,1,0,16.259a13.208,13.208,0,0,0,7.088,2.065"/>
</svg>
