<svg xmlns="http://www.w3.org/2000/svg" viewBox="0 0 21.405 16.984">
  <defs>
    <style>
      .cls-1 {
        fill: #d8d8d8;
      }
    </style>
  </defs>
  <path id="logo-social-medium" class="cls-1" d="M2.536,3.465a.835.835,0,0,0-.27-.7L.27.358V0h6.2l4.8,10.519L15.488,0H21.4V.358L19.7,2a.5.5,0,0,0-.19.478V14.51a.5.5,0,0,0,.19.478l1.668,1.637v.358H12.97v-.358l1.73-1.677c.168-.168.168-.221.168-.478V4.744l-4.81,12.209H9.408L3.815,4.744v8.182a1.115,1.115,0,0,0,.31.938L6.372,16.59v.358H0v-.354l2.248-2.73a1.078,1.078,0,0,0,.288-.938Z"/>
</svg>
