<svg xmlns="http://www.w3.org/2000/svg" viewBox="6782 1619 162.046 68">
  <defs>
    <style>
      .cls-1 {
        fill: #fff;
      }
    </style>
  </defs>
  <g id="Group_3614" data-name="Group 3614" transform="translate(6782 1619)">
    <g id="Group_3610" data-name="Group 3610">
      <g id="Group_3609" data-name="Group 3609" transform="translate(0 11.712)">
        <path id="Path_22703" data-name="Path 22703" class="cls-1" d="M0,6.7V35.368H3.5V10.2H17.131V35.368h3.5V6.7Z" transform="translate(0 -6.7)"/>
        <path id="Path_22704" data-name="Path 22704" class="cls-1" d="M41.4,6.7V35.543h3.5V10.2H56.608V35.543h3.5V10.2H71.991V35.543h3.5V6.7Z" transform="translate(30.97 -6.7)"/>
      </g>
      <path id="Path_22705" data-name="Path 22705" class="cls-1" d="M32.833,6.3A15.033,15.033,0,1,0,47.867,21.333,15.032,15.032,0,0,0,32.833,6.3Zm0,26.746A11.537,11.537,0,1,1,44.371,21.508,11.526,11.526,0,0,1,32.833,33.046Z" transform="translate(13.316 4.713)"/>
      <path id="Path_22706" data-name="Path 22706" class="cls-1" d="M101.2,29.025a11.261,11.261,0,0,1-8.566,3.846A11.537,11.537,0,1,1,101.2,13.642l2.8-1.923a14.879,14.879,0,1,0-11.537,24.3A14.521,14.521,0,0,0,103.821,30.6Z" transform="translate(58.05 4.713)"/>
      <path id="Path_22707" data-name="Path 22707" class="cls-1" d="M71.621,6.7,68.3,8.448V33.97l3.321,1.923V10.371l3.5-1.923Z" transform="translate(51.093 5.012)"/>
      <path id="Path_22708" data-name="Path 22708" class="cls-1" d="M71.621,0,68.3,1.923h0V5.943l3.321,2.1v-4.2l3.5-1.923Z" transform="translate(51.093)"/>
    </g>
    <g id="Group_3612" data-name="Group 3612" transform="translate(57.686 56.288)">
      <g id="Group_3611" data-name="Group 3611">
        <path id="Path_22709" data-name="Path 22709" class="cls-1" d="M33,43.588V32.4h2.272v9.44h5.069v1.748Z" transform="translate(-33 -32.05)"/>
        <path id="Path_22710" data-name="Path 22710" class="cls-1" d="M52.545,43.588H48V32.4h4.37c2.447,0,3.321,1.4,3.321,2.972a2.988,2.988,0,0,1-1.224,2.272,3.114,3.114,0,0,1,1.748,2.8C56.216,42.014,55.167,43.588,52.545,43.588ZM50.272,36.77h1.748c1.224,0,1.573-.7,1.573-1.4a1.429,1.429,0,0,0-1.573-1.4H50.272Zm1.748,1.748H50.1v3.5h1.923c1.4,0,1.923-.7,1.923-1.748C54.118,39.217,53.594,38.518,52.021,38.518Z" transform="translate(-21.779 -32.05)"/>
        <path id="Path_22711" data-name="Path 22711" class="cls-1" d="M59.021,43.912A6.1,6.1,0,0,1,55,42.514l.524-1.748a5.059,5.059,0,0,0,3.5,1.573c1.049,0,1.923-.524,1.923-1.573,0-.874-.524-1.4-2.447-1.923-2.447-.524-3.321-1.923-3.321-3.5,0-1.923,1.4-3.147,3.846-3.147a5.758,5.758,0,0,1,3.321,1.049l-.524,1.573a6.093,6.093,0,0,0-2.972-1.049C57.8,33.773,57.1,34.3,57.1,35s.35,1.224,1.923,1.573c2.622.7,3.671,1.748,3.671,3.671C63.041,42.863,61.118,43.912,59.021,43.912Z" transform="translate(-16.542 -32.2)"/>
      </g>
      <path id="Path_22712" data-name="Path 22712" class="cls-1" d="M45.643,32.4H43.895L39,43.588H50.362Zm-3.5,9.265,2.622-6.643,2.622,6.643Z" transform="translate(-28.512 -32.05)"/>
    </g>
  </g>
</svg>
