<svg xmlns="http://www.w3.org/2000/svg" viewBox="0 0 20.771 20.405">
  <defs>
    <style>
      .cls-1 {
        fill: #d8d8d8;
      }
    </style>
  </defs>
  <path id="logo-social-github" class="cls-1" d="M196.54,409.91a9.964,9.964,0,0,0-3.81-3.81,10.268,10.268,0,0,0-5.21-1.4,10.429,10.429,0,0,0-9.02,5.21,10.267,10.267,0,0,0-1.4,5.21,10.434,10.434,0,0,0,7.154,9.875.639.639,0,0,0,.544-.078c.156-.078.156-.233.156-.389v-1.944l-.311.078c-.233,0-.467.078-.778.078a3.783,3.783,0,0,1-.933-.078,2.394,2.394,0,0,1-.933-.389,1.756,1.756,0,0,1-.622-.855l-.156-.311a3.15,3.15,0,0,0-.389-.7,3.893,3.893,0,0,0-.622-.544l-.078-.078c-.078-.078-.156-.078-.156-.156-.078-.078-.078-.155-.156-.155,0-.078,0-.078.078-.155a.582.582,0,0,1,.389-.078l.233.078a2.393,2.393,0,0,1,.7.311,1.836,1.836,0,0,1,.622.7,2.774,2.774,0,0,0,.778.855,2.308,2.308,0,0,0,.855.311,2.4,2.4,0,0,0,.778-.078,2.032,2.032,0,0,0,.622-.233,2.027,2.027,0,0,1,.7-1.4q-.816-.117-1.4-.233a4.335,4.335,0,0,1-1.244-.544,3.166,3.166,0,0,1-1.089-.933,3.946,3.946,0,0,1-.7-1.4,7.878,7.878,0,0,1-.311-2.022,4.074,4.074,0,0,1,1.089-2.8,3.885,3.885,0,0,1,.078-2.8,2.353,2.353,0,0,1,1.166.156c.544.233.855.389,1.166.544.233.155.467.233.544.389a9.78,9.78,0,0,1,2.566-.389,8.881,8.881,0,0,1,2.566.389l.544-.311c.389-.233.778-.389,1.244-.622a2.011,2.011,0,0,1,1.089-.156,3.52,3.52,0,0,1,.078,2.8,4.074,4.074,0,0,1,1.089,2.8,5.266,5.266,0,0,1-.311,2.022,2.957,2.957,0,0,1-.7,1.4,4.3,4.3,0,0,1-1.089.933c-.467.233-.855.389-1.244.544q-.583.117-1.4.233a2.365,2.365,0,0,1,.7,1.944v2.877a.485.485,0,0,0,.7.467,10.434,10.434,0,0,0,7.154-9.875,9.41,9.41,0,0,0-1.322-5.288Zm0,0" transform="translate(-177.1 -404.7)"/>
</svg>
