<?xml version="1.0" encoding="utf-8"?>
<!-- Generator: Adobe Illustrator 22.0.1, SVG Export Plug-In . SVG Version: 6.00 Build 0)  -->
<svg version="1.1" id="Capa_1" xmlns="http://www.w3.org/2000/svg" xmlns:xlink="http://www.w3.org/1999/xlink" x="0px" y="0px"
	 viewBox="0 0 160 46.9" style="enable-background:new 0 0 160 46.9;" xml:space="preserve">
<style type="text/css">
	.st0{fill:none;}
	.st1{fill:#F9C738;}
</style>
<rect class="st0" width="160" height="60"/>
<g transform="translate(1 2)">
	<path class="st1" d="M11,9.8h3.6v15.4l6-4.2c0.4-0.1,0.9-0.2,1.4-0.2c5.3,0,7.8,3.1,7.8,7.4V37c0,6.3-4.5,7.9-9.4,7.9
		S11,43.3,11,37L11,9.8z M14.6,37.1c0,3.2,2.3,4.5,5.7,4.5s5.8-1.3,5.8-4.5v-7.8c0-2.9-1.2-5-3.8-5c-0.8,0-1.6,0.2-2.3,0.6l-5.4,3
		L14.6,37.1z"/>
	<path class="st1" d="M39.8,21.3v15.5c0,2.9,1.2,4.6,3.8,4.6c0.8,0,1.6-0.2,2.3-0.6l5.4-3V21.3H55v23.1h-3.6v-3.8l-6,4.2
		c-0.4,0.1-0.9,0.2-1.4,0.2c-5.3,0-7.8-3.1-7.8-7.4V21.3H39.8z"/>
	<path class="st1" d="M62.8,15.6V9.8h3.6v5.9H62.8z M62.8,44.4V21.3h3.6v23.1H62.8z"/>
	<path class="st1" d="M89.3,44.4v-3.9l-6,4.2c-0.4,0.1-0.9,0.2-1.4,0.2c-5.3,0-7.8-3.1-7.8-7.4v-8.6c0-4.8,2.1-8.1,9.4-8.1
		c2,0,3.9,0.4,5.7,1v-12h3.6v34.6H89.3z M89.3,25c-1.9-0.6-3.8-0.9-5.8-1c-3.5,0-5.7,1.4-5.7,4.6v8c0,3.2,1.3,4.6,3.8,4.6
		c0.8,0,1.6-0.2,2.3-0.6l5.4-3L89.3,25z"/>
	<path class="st1" d="M100.7,44.4V9.8h3.6v34.6H100.7z"/>
	<path class="st1" d="M130.8,28.9v5.6h-15.1v2.1c0,4,3.5,4.9,7.2,4.9c2.4,0,4.8-0.2,7.2-0.5v3.4c-2.5,0.4-5,0.5-7.5,0.5
		c-5.3,0-10.5-1.9-10.5-8.8v-7.3c0-4.8,2.1-8.1,9.4-8.1C128.8,20.7,130.8,24.1,130.8,28.9z M127.2,31.2v-2.8c0-2.7-1.7-4.4-5.7-4.4
		c-3.5,0-5.8,1.3-5.8,4.5v2.7L127.2,31.2z"/>
	<path class="st1" d="M136.5,44.4V21.3h3.6v5.4h0.2c1.4-3.5,4.8-5.7,8.5-5.6v3.8c-6.1,0-8.6,5.8-8.8,6.1v13.5H136.5z"/>
</g>
</svg>
