<svg xmlns="http://www.w3.org/2000/svg" viewBox="0 0 150.441 34.75">
  <defs>
    <style>
      .cls-1 {
        fill: #fff;
      }
    </style>
  </defs>
  <g id="logo-decentraland" transform="translate(-1248 -637.25)">
    <g id="logo-decentraland-2" data-name="logo-decentraland" transform="translate(0.121 -71.629)">
      <path id="Path_22619" data-name="Path 22619" class="cls-1" d="M17.375,0A17.375,17.375,0,1,0,34.75,17.375,17.4,17.4,0,0,0,17.375,0Zm0,33.372A16.021,16.021,0,0,1,2.448,23.114c.455,0,.934.023,1.423.023a2.878,2.878,0,0,0,.8.1,2.737,2.737,0,0,0,.638-.068,1.725,1.725,0,0,1,.33.023.457.457,0,0,0-.034.171c0,.763.82,1.321,1.947,1.321,1.093,0,1.89-.524,1.924-1.252.171.023.364.034.535.057,4.623.5,4.942,1.344,4.942,1.378.023.068-.091.433-1.025,1.059-1.958,1.355-2.642,2.175-2.471,3.029.2,1.025,1.548,1.287,3.575,1.674.569.1,1.218.228,1.879.387.729.159,1.514.307,2.254.467,1.355.273,2.744.558,3.86.888A16.352,16.352,0,0,1,17.375,33.372ZM4.236,21.747c.1-.307.262-.82.455-1.355.194.558.364,1.059.455,1.378C4.828,21.759,4.532,21.747,4.236,21.747ZM7.1,23.216c.1-.307.273-.831.467-1.412.194.569.364,1.093.467,1.412a1.629,1.629,0,0,1-.934,0Zm17.717,8.312a24.851,24.851,0,0,0-5.374-1.446c-.729-.137-1.492-.3-2.22-.455-.683-.159-1.344-.273-1.924-.387a12.061,12.061,0,0,1-2.437-.6,6.862,6.862,0,0,1,1.856-1.56c.49-.33,1.958-1.344,1.56-2.619-.364-1.2-2.254-1.924-6.114-2.346q-.529-.051-1.093-.1c-.194-.569-.467-1.389-.865-2.573l-.66-1.924-.66,1.924c-.228.638-.4,1.161-.558,1.617-.171-.558-.49-1.457-1.025-3.029l-.615-1.97-.66,1.936c-.9,2.642-1.161,3.427-1.23,3.723H2a17.97,17.97,0,0,1-.558-3.143l1.594-.057,2.642-4.623H7.5l1.583,5.192,3.723-.956.854.467-1.81,2.277,1.093.865,3.86-4.885.455.262,2.084.763.9-.467a2.78,2.78,0,0,0-.273,1.184c0,.421.262,1.3,2.243,1.628a1.3,1.3,0,0,1,1.093,1.287v2.254a4.033,4.033,0,0,0-.934-.49H22.4a2.294,2.294,0,0,1-1.708-1.355,1.888,1.888,0,0,1-1.287,1.2,3.413,3.413,0,0,0-2.778,3.1c0,.524.4,1.753,4.031,1.753,3.655,0,4.031-1.23,4.031-1.753V23.478a3.917,3.917,0,0,0,.854.2,1.3,1.3,0,0,1,1.093,1.287v1.56a.718.718,0,0,0,.626.729.7.7,0,0,0,.763-.695V24.969a1.308,1.308,0,0,1,1.093-1.287c1.981-.33,2.243-1.2,2.243-1.628a3.162,3.162,0,0,0-1.89-2.744h.023c-.023,0-.034-.023-.068-.023a4.171,4.171,0,0,0-.626-.239,2.254,2.254,0,0,1-.786-.626,3.37,3.37,0,0,0-2.334-2.778h-.023c-.091-.034-.171-.057-.262-.091A2.058,2.058,0,0,1,23.967,14.3a2.086,2.086,0,0,1-1.594,1.321h0a.764.764,0,0,0-.171.068l2.175-2.311,1.3,1.753,1.048-.831h.262l2.254,3.108,1.594-.273L33.179,19.8A15.965,15.965,0,0,1,24.821,31.528Zm.74-18.923-1.048-1.412-3.222,3.461a4.539,4.539,0,1,1,5.021-4.52A4.45,4.45,0,0,1,25.562,12.6Zm1.07,5.887a5.7,5.7,0,0,1-2.642.455h0a5.544,5.544,0,0,1-2.642-.455h0c.068-.968,1.252-1.776,2.642-1.776s2.562.808,2.642,1.776Zm.706,1.708c1.389,0,2.573.8,2.642,1.776h0a5.7,5.7,0,0,1-2.642.455h0a5.544,5.544,0,0,1-2.642-.455h0C24.764,21,25.949,20.2,27.338,20.2Zm-4.053,5.921a5.659,5.659,0,0,1-2.642.455A5.5,5.5,0,0,1,18,26.119c.068-.968,1.252-1.776,2.642-1.776S23.216,25.152,23.284,26.119Zm8.084-10.5-1.492.262-2.152-2.995H27.03a5.945,5.945,0,1,0-6.866,2.926l-.091.091-.854.433-1.389-.5-1.378-.8-1.924,2.437-1.548-.854-2.972.763-1.492-4.9H4.862L2.2,17.147l-.82.023a15.992,15.992,0,0,1,31.983.2v.5ZM10.919,12.411A4.031,4.031,0,1,1,14.95,8.38,4.038,4.038,0,0,1,10.919,12.411Zm0-6.672A2.642,2.642,0,1,0,13.561,8.38,2.643,2.643,0,0,0,10.919,5.739Z" transform="translate(1247.879 708.879)"/>
      <g id="Group_3549" data-name="Group 3549" transform="translate(398 22)">
        <g id="Group_3549-2" data-name="Group 3549" transform="translate(894.891 701)">
          <path id="Path_22632" data-name="Path 22632" class="cls-1" d="M5.49,1.711A3.805,3.805,0,0,1,6.979,3.139a3.988,3.988,0,0,1,.538,2.071A3.971,3.971,0,0,1,6.97,7.28,3.834,3.834,0,0,1,5.463,8.7a4.575,4.575,0,0,1-2.185.52H0V1.2H3.331A4.465,4.465,0,0,1,5.49,1.711Zm-.8,5.816a2.381,2.381,0,0,0,.925-.943,2.8,2.8,0,0,0,.335-1.366A2.8,2.8,0,0,0,5.6,3.835a2.508,2.508,0,0,0-.943-.952,2.663,2.663,0,0,0-1.348-.335H1.533V7.862H3.366A2.543,2.543,0,0,0,4.688,7.527Z" transform="translate(0 -1.094)"/>
          <path id="Path_22633" data-name="Path 22633" class="cls-1" d="M110.209,1.2h5.877V2.539h-4.344V4.522h3.895V5.861h-3.895V7.879h4.476V9.218H110.2V1.2Z" transform="translate(-100.49 -1.094)"/>
          <path id="Path_22634" data-name="Path 22634" class="cls-1" d="M204.328,1.648a2.741,2.741,0,0,0-2.538.079,2.606,2.606,0,0,0-.978.978,2.7,2.7,0,0,0-.352,1.366,2.7,2.7,0,0,0,.352,1.366,2.629,2.629,0,0,0,.978.987,2.681,2.681,0,0,0,1.366.361,2.912,2.912,0,0,0,1.154-.256,3.286,3.286,0,0,0,1.022-.7l.908,1a4.684,4.684,0,0,1-1.463,1.013,4.129,4.129,0,0,1-1.692.37,4.258,4.258,0,0,1-2.124-.546A4.054,4.054,0,0,1,198.9,4.089,3.949,3.949,0,0,1,199.464,2,3.994,3.994,0,0,1,201,.52,4.39,4.39,0,0,1,203.129,0a4.323,4.323,0,0,1,1.683.344,4.15,4.15,0,0,1,1.41.952l-.89,1.119A3.147,3.147,0,0,0,204.328,1.648Z" transform="translate(-181.374 0)"/>
          <path id="Path_22635" data-name="Path 22635" class="cls-1" d="M306.109,1.2h5.877V2.539h-4.344V4.522h3.895V5.861h-3.895V7.879h4.476V9.218H306.1V1.2Z" transform="translate(-279.128 -1.094)"/>
          <path id="Path_22636" data-name="Path 22636" class="cls-1" d="M407.486,1.2h1.489V9.218h-1.454L403.4,3.694V9.218h-1.5V1.2h1.454l4.133,5.534Z" transform="translate(-366.487 -1.094)"/>
          <path id="Path_22637" data-name="Path 22637" class="cls-1" d="M504.2,1.2h6.538V2.566h-2.494V9.218h-1.551V2.557H504.2Z" transform="translate(-459.772 -1.094)"/>
          <path id="Path_22638" data-name="Path 22638" class="cls-1" d="M605.614,9.218l-1.383-2.37a2.5,2.5,0,0,1-.291.009h-1.806V9.218H600.6V1.2h3.348a3.583,3.583,0,0,1,2.406.723,2.539,2.539,0,0,1,.846,2.035,2.991,2.991,0,0,1-.405,1.6,2.511,2.511,0,0,1-1.19,1l1.762,2.661Zm-3.481-3.71h1.806a2.03,2.03,0,0,0,1.331-.379,1.363,1.363,0,0,0,.458-1.119,1.327,1.327,0,0,0-.458-1.1,2.081,2.081,0,0,0-1.331-.37h-1.806Z" transform="translate(-547.678 -1.094)"/>
          <path id="Path_22639" data-name="Path 22639" class="cls-1" d="M699.926,9.218l-.714-1.692h-3.921l-.7,1.692H693L696.516,1.2h1.595l3.472,8.018ZM695.846,6.2h2.82l-1.4-3.366Z" transform="translate(-631.936 -1.094)"/>
          <path id="Path_22640" data-name="Path 22640" class="cls-1" d="M811.1,1.2h1.533V7.835H816.1V9.218h-5Z" transform="translate(-739.63 -1.094)"/>
          <path id="Path_22641" data-name="Path 22641" class="cls-1" d="M887.344,9.218l-.714-1.692h-3.921l-.714,1.692H880.4L883.916,1.2h1.595l3.472,8.018ZM883.264,6.2h2.82l-1.4-3.366Z" transform="translate(-802.823 -1.094)"/>
          <path id="Path_22642" data-name="Path 22642" class="cls-1" d="M1004.386,1.2h1.489V9.218h-1.454L1000.3,3.694V9.218h-1.5V1.2h1.454l4.133,5.534Z" transform="translate(-910.79 -1.094)"/>
          <path id="Path_22643" data-name="Path 22643" class="cls-1" d="M1116.69,1.8a3.8,3.8,0,0,1,1.489,1.427,3.987,3.987,0,0,1,.537,2.071,3.97,3.97,0,0,1-.546,2.071,3.794,3.794,0,0,1-1.507,1.427,4.575,4.575,0,0,1-2.185.52H1111.2V1.3h3.331A4.363,4.363,0,0,1,1116.69,1.8Zm-.793,5.816a2.379,2.379,0,0,0,.925-.943,2.8,2.8,0,0,0,.335-1.366,2.8,2.8,0,0,0-.344-1.383,2.508,2.508,0,0,0-.943-.952,2.663,2.663,0,0,0-1.348-.335h-1.78V7.949h1.833A2.588,2.588,0,0,0,1115.9,7.614Z" transform="translate(-1013.287 -1.182)"/>
        </g>
      </g>
    </g>
  </g>
</svg>
