<svg xmlns="http://www.w3.org/2000/svg" viewBox="5346 1488 163.069 68.429">
  <defs>
    <style>
      .cls-1 {
        fill: #fff;
      }
    </style>
  </defs>
  <g id="Group_3618" data-name="Group 3618" transform="translate(5346 1488)">
    <g id="Group_3605" data-name="Group 3605" transform="translate(0 11.786)">
      <path id="Path_22693" data-name="Path 22693" class="cls-1" d="M0,6.7V35.549H3.518V10.218H17.239V35.549h3.518V6.7Z" transform="translate(0 -6.7)"/>
      <path id="Path_22694" data-name="Path 22694" class="cls-1" d="M41.4,6.7V35.725h3.518V10.218H56.7V35.725h3.518V10.218H72.184V35.725H75.7V6.7Z" transform="translate(31.427 -6.7)"/>
    </g>
    <path id="Path_22695" data-name="Path 22695" class="cls-1" d="M32.928,6.3A15.128,15.128,0,1,0,48.057,21.428,15.127,15.127,0,0,0,32.928,6.3Zm0,26.914A11.61,11.61,0,1,1,44.538,21.6,11.6,11.6,0,0,1,32.928,33.214Z" transform="translate(13.512 4.782)"/>
    <path id="Path_22696" data-name="Path 22696" class="cls-1" d="M101.348,29.168a11.332,11.332,0,0,1-8.62,3.87,11.61,11.61,0,1,1,8.62-19.35l2.815-1.935A14.973,14.973,0,1,0,92.552,36.2a14.613,14.613,0,0,0,11.434-5.453Z" transform="translate(58.906 4.782)"/>
    <path id="Path_22697" data-name="Path 22697" class="cls-1" d="M71.642,6.7,68.3,8.459V34.142l3.342,1.935V10.394L75.16,8.459Z" transform="translate(51.847 5.086)"/>
    <path id="Path_22698" data-name="Path 22698" class="cls-1" d="M71.642,0,68.3,1.935h0V5.981l3.342,2.111V3.87L75.16,1.935Z" transform="translate(51.847)"/>
    <g id="Group_3607" data-name="Group 3607" transform="translate(0 56.643)">
      <g id="Group_3606" data-name="Group 3606">
        <path id="Path_22699" data-name="Path 22699" class="cls-1" d="M0,43.658V32.4H2.287v9.5h5.1v1.759Z" transform="translate(0 -32.048)"/>
        <path id="Path_22700" data-name="Path 22700" class="cls-1" d="M19.474,43.658H14.9V32.4h4.4c2.463,0,3.342,1.407,3.342,2.99a3.007,3.007,0,0,1-1.231,2.287,3.134,3.134,0,0,1,1.759,2.815C23.344,42.075,22.288,43.658,19.474,43.658ZM17.187,36.8h1.759c1.231,0,1.583-.7,1.583-1.407a1.438,1.438,0,0,0-1.583-1.407H17.187Zm1.935,1.759H17.187v3.518h1.935c1.407,0,1.935-.7,1.935-1.759S20.529,38.557,19.122,38.557Z" transform="translate(11.311 -32.048)"/>
        <path id="Path_22701" data-name="Path 22701" class="cls-1" d="M26.046,43.986A6.136,6.136,0,0,1,22,42.579l.528-1.759A5.091,5.091,0,0,0,26.046,42.4c1.055,0,1.935-.528,1.935-1.583,0-.88-.528-1.407-2.463-1.935-2.463-.528-3.342-1.935-3.342-3.518,0-1.935,1.407-3.166,3.87-3.166a5.8,5.8,0,0,1,3.342,1.055l-.352,1.583a6.131,6.131,0,0,0-2.99-1.055c-1.055,0-1.759.528-1.759,1.231s.352,1.231,1.935,1.583c2.639.7,3.694,1.759,3.694,3.694C30.092,42.931,28.157,43.986,26.046,43.986Z" transform="translate(16.7 -32.2)"/>
      </g>
      <path id="Path_22702" data-name="Path 22702" class="cls-1" d="M12.685,32.4H10.925L6,43.658H17.434ZM8.99,41.723l2.639-6.509L14.268,41.9H8.99Z" transform="translate(4.555 -32.048)"/>
    </g>
  </g>
</svg>
