<svg xmlns="http://www.w3.org/2000/svg" width="78.726" height="145.375" viewBox="0 0 78.726 145.375"><g transform="translate(32.266 66.21)"><path d="M224.729,230.819H186.137a11.54,11.54,0,0,1-11.489-11.6V172.431h50.081v58.388Z" transform="translate(-199.678 -192.787)" fill="#472c53"/><path d="M267.873,260.2c3.064-.141,5.7-1.6,8.219-3.237-1.417-5.805-7.323-10.429-12.6-9.717.335,1.052,1.578,9.7,1.578,9.7S267.951,257.872,267.873,260.2Z" transform="translate(-237.599 -224.285)" fill="#ededed"/><path d="M269.365,266.9c.011.938-.461,2.112-1.826,3.557-.336.356-.8,5.59-.41,7.658,9.9-4.225,11.846-9.458,10.343-14.749A18.094,18.094,0,0,1,269.365,266.9Z" transform="translate(-239.089 -231.107)" fill="#ea8058"/><path d="M272.022,274.905a19.581,19.581,0,0,0,2.9-2.763,14.179,14.179,0,0,0,2.8-6.128,11.117,11.117,0,0,0-.42-2.652A18.094,18.094,0,0,1,269.2,266.9c.011.938-.461,2.112-1.826,3.557-.311.329-.943,5.774-.738,8.243,1.623-1.338,3.5-2.3,5.189-3.528A.556.556,0,0,1,272.022,274.905Z" transform="translate(-238.924 -231.107)" fill="#f3946f"/><path d="M267.45,284.244a5.628,5.628,0,0,0,.523-6.01c-1.172-2.559-3.331-3.166-5.589-1.857a11.693,11.693,0,0,0-2.869,2.611,5.075,5.075,0,0,0-1.59,3.269,4.729,4.729,0,0,0,1.92,3.834,10.367,10.367,0,0,0,4.147,1.735,4.694,4.694,0,0,0,2.363-.533,3.158,3.158,0,0,0,1.3-1.255,1.6,1.6,0,0,0-.135-1.728C267.5,284.285,267.472,284.266,267.45,284.244Z" transform="translate(-235.223 -236.311)" fill="#ea8058"/><path d="M267.023,285.118c-.01.012-.019.025-.029.038a.441.441,0,0,1-.364.183,3.416,3.416,0,0,1-1.354.331.544.544,0,0,1-.269-1.005,9.251,9.251,0,0,0,2.01-1.578.568.568,0,0,1,.056-.15,19.038,19.038,0,0,0,.9-1.8c.177-.529.324-1.072.451-1.622a7.079,7.079,0,0,0-.446-1.282c-1.172-2.559-3.331-3.166-5.589-1.857a11.693,11.693,0,0,0-2.869,2.611,5.075,5.075,0,0,0-1.59,3.269,4.729,4.729,0,0,0,1.92,3.834,10.645,10.645,0,0,0,4.147,1.735,4.179,4.179,0,0,0,2.363-.533,3.158,3.158,0,0,0,1.3-1.255,1.7,1.7,0,0,0,.056-1.422A6.463,6.463,0,0,1,267.023,285.118Z" transform="translate(-235.223 -236.311)" fill="#f3946f"/><path d="M195.951,317.335s.348-22.949,2.941-30.307c.91-.811,34.807,1.595,34.807,1.595l.443,28.712h3.7v2.841h-10.6l-2.179-1.41v1.41h-4.57s-.465-16.676-3.893-24.262c-2.877,3.378-5.88,15.667-6.907,21.421-.313,1.755-.6,2.841-.6,2.841h-4.845v-1.389l-2.2,1.389h-10.05v-2.841Z" transform="translate(-207.082 -241.01)" fill="#2e3033"/><path d="M198.9,317.457h13.816c2.155-13.622,6.834-21.422,6.834-21.422s3.219,11.395,3.428,21.422h14.143c1.428-19.282-.474-28.712-.474-28.712l-34.807-1.595Z" transform="translate(-210.028 -241.132)" fill="#3d404e"/><path d="M234.926,302.506c2.549,8.583,3.428,21.422,3.428,21.422h4.666S239.731,308.17,234.926,302.506Z" transform="translate(-225.406 -247.603)" fill="#2e3033"/><path d="M240.906,339.532l.465,2.841h4.57v-1.2l-.614-1.645Z" transform="translate(-227.959 -263.208)" fill="#15191f"/><path d="M198.9,317.457l7.7-30.307h-4.761L198.9,317.457" transform="translate(-210.028 -241.132)" fill="#2e3033"/><path d="M240.906,339.532l.465,2.841h4.57v-1.2l-.614-1.645Z" transform="translate(-227.959 -263.208)" fill="#15191f"/><path d="M195.951,339.532h-3.957v2.841h4.761v-2.841h-.8" transform="translate(-207.082 -263.208)" fill="#15191f"/><path d="M230.928,237.154c-18.388.9-25.766,5.822-25.766,5.822a40.034,40.034,0,0,0-1.393,8.608,1.058,1.058,0,0,1,.626.2c.827.609.953,1.676.79,3.183a29.853,29.853,0,0,1-1.539,6.024c.023,2.214.047,4.485.009,6.726h35.673l.085-18.389S236.749,237.03,230.928,237.154Z" transform="translate(-212.055 -220.062)" fill="#ededed"/><path d="M203.661,267.65l1.46-6.108,2.285-.982a8.075,8.075,0,0,0,4.295-10.4l-4.845-12.345,7-.769,12.187,13.776,4.866-11.7a8.447,8.447,0,0,1,8.4,8.479v20.034l-35.651.021Z" transform="translate(-212.062 -220.015)" fill="#ea8058"/><path d="M203.655,267.845l-.009-9.108s13.706-3.412,4.1-17.11l6.112-4.582L226.04,250.82l4.272-11.564c4.634,0,9.206,3.662,9.206,8.34v20.25Z" transform="translate(-212.055 -220.015)" fill="#f7a836"/><g transform="translate(-8.461 16.538)"><g transform="translate(0 23.571)"><rect width="35.969" height="3.631" fill="#2e3033"/></g><g transform="translate(3.825 0)"><path d="M226.828,261.2a58.431,58.431,0,0,0-16.6-22.1l2.159-2.9a61.282,61.282,0,0,1,17.764,23.629Z" transform="translate(-210.231 -236.196)" fill="#2e3033"/></g><g transform="translate(22.518 2.674)"><path d="M246.19,262.726l-3.346-.526a70.9,70.9,0,0,1,7.178-21.382l2.952,1.673h0A68.671,68.671,0,0,0,246.19,262.726Z" transform="translate(-242.844 -240.818)" fill="#2e3033"/></g></g><path d="M182.351,252.211a12.331,12.331,0,0,0-1.739,5.242.632.632,0,0,1,.1.065,9.086,9.086,0,0,0,4.988,2.217,26.7,26.7,0,0,0,3.783.082c-.081-3.239,3.566-5.745,6.886-5.057.438-1.983,1.541-9.8,1.541-9.8S186.839,244.964,182.351,252.211Z" transform="translate(-202.224 -223.354)" fill="#ededed"/><path d="M189.452,268.51a16.288,16.288,0,0,1-8.857-2.222c-.514,4.508,2.477,9.635,6.054,11.722,2.475,1.444,7-1.105,7.656-3.221C190.66,272.776,189.364,270.488,189.452,268.51Z" transform="translate(-202.191 -232.341)" fill="#ea8058"/><path d="M195.453,275.358c-3.645-2.012-4.941-4.3-4.853-6.279a16.789,16.789,0,0,1-7.374-1.439c.015.792-.246,5.485,4.855,10.18.277.255,1,.458,1.045.747a.554.554,0,0,1-.378.925c-.065,0-.129,0-.193-.005a19.362,19.362,0,0,0,5.992,2.428A20.647,20.647,0,0,1,195.453,275.358Z" transform="translate(-203.34 -232.912)" fill="#f3946f"/><path d="M196.849,278.705a7.1,7.1,0,0,0-4.373,2.279,5.906,5.906,0,0,0-1.291,2.241,3.318,3.318,0,0,0,2.16,3.106,2.442,2.442,0,0,0,.7,2.6c2.749,2.593,7.669-.283,8.1-.823a9.521,9.521,0,0,0,1.529-4.588C203.854,282.291,199.966,278.206,196.849,278.705Z" transform="translate(-206.729 -237.555)" fill="#ea8058"/><path d="M194.982,285.893a6,6,0,0,1,1.266,1.319c1.128.234,2.719.033,5.1-1.062a6.884,6.884,0,0,0,2.777-2.635c-.612-2.186-4.06-5.253-6.828-4.81a7.1,7.1,0,0,0-4.373,2.279,9.646,9.646,0,0,0-.708.951.469.469,0,0,1,.249.6,2.377,2.377,0,0,0,1.63,2.97A2.064,2.064,0,0,1,194.982,285.893Z" transform="translate(-207.177 -237.556)" fill="#f3946f"/><path d="M267.423,211.545a8.375,8.375,0,1,0-8.167-8.372A8.281,8.281,0,0,0,267.423,211.545Z" transform="translate(-235.791 -202.214)" fill="#ea8058"/><path d="M240.8,181.282c0,16.872-11.976,26.8-26.744,26.8s-26.744-9.932-26.744-26.8,11.976-34.322,26.744-34.322S240.8,164.388,240.8,181.282Z" transform="translate(-205.082 -182.051)" fill="#ea8058"/><path d="M246.82,208.681h-33.2a8.22,8.22,0,0,0-8.188,8.265v12.2A28,28,0,0,0,221.79,234.1c11.447,0,21.221-5.98,25.03-16.531v-8.885Z" transform="translate(-212.819 -208.063)" fill="#f3946f"/><path d="M204.253,186.609H174.611V165.38l42.507,8.244A12.947,12.947,0,0,1,204.253,186.609Z" transform="translate(-199.662 -189.814)" fill="#472c53"/><path d="M254.407,191.806H244.97v-14.1h23.4A14.017,14.017,0,0,1,254.407,191.806Z" transform="translate(-229.694 -195.011)" fill="#472c53"/><path d="M162.044,143.793a1.414,1.414,0,0,0,.952,1.3c6.432,2.605,70.372,2.605,76.8,0a1.5,1.5,0,0,0,.782-2.093,4.577,4.577,0,0,0-2.687-3.438,35.715,35.715,0,0,0,.339-5.019,37.136,37.136,0,0,0-24.078-34.877,5.44,5.44,0,0,1-3.132-3.076,5.38,5.38,0,0,0-5.014-3.417h-9.225a5.373,5.373,0,0,0-4.993,3.438,5.381,5.381,0,0,1-3.132,3.076,37.167,37.167,0,0,0-24.1,34.877,36,36,0,0,0,.36,5.04,4.7,4.7,0,0,0-2.9,4.187Z" transform="translate(-194.289 -159.385)" fill="#feca36"/><path d="M225.738,135.819l7.913,4.634,7.934-4.634-7.934-12.965Z" transform="translate(-221.484 -171.892)" fill="#2e3033"/><path d="M225.738,150.319l7.913,11.341,7.934-11.341-7.934,4.933Z" transform="translate(-221.484 -183.467)" fill="#2e3033"/><path d="M163.012,147.989c1.5.619,6.2,1.089,12.589,1.409l6.58.278-.465-10.551a66.858,66.858,0,0,1,6.008-30.755l3.83-8.33a5.277,5.277,0,0,1-2.878,2.542A37.178,37.178,0,0,0,164.6,137.46a36.017,36.017,0,0,0,.36,5.04,4.693,4.693,0,0,0-2.9,4.186h.042A1.372,1.372,0,0,0,163.012,147.989Z" transform="translate(-194.305 -162.279)" fill="#f7a836"/><path d="M186.7,207.444a2.387,2.387,0,0,1-.212-4.421,3.73,3.73,0,0,1,2.942-.106c2.052.811,2.623,2.157,2.623,4.549a5.732,5.732,0,0,1-1.375,3.716c0-.128.021-.256.021-.385C190.721,209.324,188.563,208.106,186.7,207.444Z" transform="translate(-204.14 -205.527)" fill="#f3946f"/><path d="M185.4,211.545a8.375,8.375,0,1,0-8.167-8.372A8.281,8.281,0,0,0,185.4,211.545Z" transform="translate(-200.78 -202.214)" fill="#ea8058"/><path d="M235.714,236.962a5.035,5.035,0,0,0,5.015-5.061H230.721A5.017,5.017,0,0,0,235.714,236.962Z" transform="translate(-223.612 -217.849)" fill="#fff"/><path d="M222.126,207.611h0a3.838,3.838,0,0,0-3.808,3.844v2.99a3.838,3.838,0,0,0,3.808,3.845h0a3.838,3.838,0,0,0,3.809-3.845v-2.99A3.81,3.81,0,0,0,222.126,207.611Z" transform="translate(-218.318 -207.611)" fill="#2e3033"/><path d="M252.027,207.611h0a3.838,3.838,0,0,0-3.808,3.844v2.99a3.838,3.838,0,0,0,3.808,3.845h0a3.838,3.838,0,0,0,3.809-3.845v-2.99A3.81,3.81,0,0,0,252.027,207.611Z" transform="translate(-231.081 -207.611)" fill="#2e3033"/></g></svg>