<svg xmlns="http://www.w3.org/2000/svg" width="78.447" height="149.158" viewBox="0 0 78.447 149.158"><g transform="translate(-84.574)"><path d="M328.391,260.327c-3.06-.141-5.693-1.6-8.206-3.231,1.415-5.8,7.312-10.414,12.582-9.7-.335,1.051-1.576,9.688-1.576,9.688S328.313,258,328.391,260.327Z" transform="translate(-229.532 -154.355)" fill="#ededed"/><path d="M328.135,267.015c-.011.937.46,2.109,1.823,3.551.336.356.8,5.582.41,7.647-9.89-4.218-11.829-9.444-10.327-14.727A18.057,18.057,0,0,0,328.135,267.015Z" transform="translate(-229.277 -161.168)" fill="#ea8058"/><path d="M325.341,275.01a19.522,19.522,0,0,1-2.9-2.758,14.166,14.166,0,0,1-2.8-6.119,11.079,11.079,0,0,1,.42-2.648,18.057,18.057,0,0,0,8.095,3.529c-.011.937.46,2.109,1.823,3.551.31.328.942,5.765.737,8.231-1.62-1.335-3.492-2.3-5.181-3.522A.559.559,0,0,0,325.341,275.01Z" transform="translate(-229.301 -161.168)" fill="#f3946f"/><path d="M330.243,284.335a5.62,5.62,0,0,1-.521-6c1.17-2.555,3.326-3.162,5.58-1.854a11.681,11.681,0,0,1,2.865,2.606,5.065,5.065,0,0,1,1.588,3.265,4.719,4.719,0,0,1-1.917,3.828,10.351,10.351,0,0,1-4.141,1.732,4.679,4.679,0,0,1-2.359-.532,3.152,3.152,0,0,1-1.294-1.254,1.6,1.6,0,0,1,.134-1.726C330.2,284.376,330.221,284.356,330.243,284.335Z" transform="translate(-233.335 -166.361)" fill="#ea8058"/><path d="M330.8,285.207l.029.038a.441.441,0,0,0,.363.182,3.406,3.406,0,0,0,1.352.331.544.544,0,0,0,.269-1,9.224,9.224,0,0,1-2.007-1.577.588.588,0,0,0-.055-.15,18.782,18.782,0,0,1-.9-1.794c-.177-.529-.324-1.07-.451-1.62a7.023,7.023,0,0,1,.446-1.28c1.17-2.555,3.326-3.162,5.58-1.854a11.68,11.68,0,0,1,2.865,2.606,5.065,5.065,0,0,1,1.588,3.265,4.72,4.72,0,0,1-1.917,3.828,10.63,10.63,0,0,1-4.141,1.732,4.171,4.171,0,0,1-2.359-.532,3.151,3.151,0,0,1-1.294-1.254,1.7,1.7,0,0,1-.056-1.419A6.355,6.355,0,0,0,330.8,285.207Z" transform="translate(-233.47 -166.361)" fill="#f3946f"/><path d="M375.481,317.376s-.348-22.914-2.937-30.26c-.908-.81-34.753,1.592-34.753,1.592l-.443,28.668h-3.7v2.837h10.584l2.176-1.408v1.408h4.563s.465-16.651,3.887-24.226c2.873,3.373,5.87,15.643,6.9,21.389.313,1.753.6,2.837.6,2.837H367.2v-1.386l2.2,1.386h10.035v-2.837Z" transform="translate(-235.28 -171.054)" fill="#2e3033"/><path d="M377.816,317.5h-13.8c-2.152-13.6-6.824-21.389-6.824-21.389s-3.214,11.378-3.422,21.389H339.652c-1.426-19.252.474-28.668.474-28.668l34.753-1.592Z" transform="translate(-237.615 -171.176)" fill="#3d404e"/><path d="M364.639,302.57c-2.545,8.57-3.422,21.389-3.422,21.389h-4.659S359.841,308.225,364.639,302.57Z" transform="translate(-245.058 -177.638)" fill="#2e3033"/><path d="M360.942,339.539l-.465,2.836h-4.563v-1.194l.613-1.642Z" transform="translate(-244.782 -193.219)" fill="#15191f"/><path d="M400.9,317.5l-7.69-30.261h4.753L400.9,317.5" transform="translate(-260.704 -171.177)" fill="#2e3033"/><path d="M360.942,339.539l-.465,2.836h-4.563v-1.194l.613-1.642Z" transform="translate(-244.782 -193.219)" fill="#15191f"/><path d="M406.034,339.539h3.951v2.836h-4.753v-2.836h.8" transform="translate(-265.833 -193.219)" fill="#15191f"/><path d="M348.055,237.316c18.36.9,25.726,5.814,25.726,5.814a39.962,39.962,0,0,1,1.392,8.6,1.059,1.059,0,0,0-.626.2c-.825.607-.951,1.673-.789,3.178a29.817,29.817,0,0,0,1.537,6.015c-.023,2.211-.047,4.478-.009,6.716H339.668l-.084-18.361S342.242,237.193,348.055,237.316Z" transform="translate(-237.813 -150.139)" fill="#ededed"/><path d="M375.365,267.766l-1.458-6.1-2.282-.981a8.063,8.063,0,0,1-4.288-10.385l4.838-12.326-6.993-.768-12.169,13.755-4.859-11.687a8.434,8.434,0,0,0-8.387,8.466v20l35.6.021Z" transform="translate(-237.89 -150.093)" fill="#ea8058"/><path d="M375.208,267.787l.009-8.921s-13.685-3.407-4.089-17.084l-6.1-4.575-12.169,13.755-4.266-11.547c-4.627,0-9.192,3.657-9.192,8.327v20.046l35.809-.021Z" transform="translate(-237.733 -150.093)" fill="#f7a836"/><g transform="translate(101.62 86.625)"><g transform="translate(0 23.536)"><rect width="35.915" height="3.625" fill="#2e3033"/></g><g transform="translate(12.202)"><path d="M363.929,261.33A58.573,58.573,0,0,1,380.5,239.259l-2.157-2.9a61.182,61.182,0,0,0-17.738,23.593Z" transform="translate(-360.607 -236.36)" fill="#2e3033"/></g><g transform="translate(3.316 2.67)"><path d="M351.878,262.849l3.34-.525a70.8,70.8,0,0,0-7.167-21.349l-2.947,1.671A68.558,68.558,0,0,1,351.878,262.849Z" transform="translate(-345.104 -240.975)" fill="#2e3033"/></g></g><g transform="translate(84.574)"><path d="M328.626,208.448a9.469,9.469,0,1,0-9.38-9.468A9.431,9.431,0,0,0,328.626,208.448Z" transform="translate(-313.706 -129.992)" fill="#ea8058"/><path d="M403.247,105.175c4.331,2.325,6.148,6.291,7.268,10.727.38,1.514,1.1,2.772,2.852,2.346,1.838-.448,1.605-1.962,1.289-3.412C413.346,109.014,408.888,105.026,403.247,105.175Z" transform="translate(-349.56 -94.448)" fill="#ea8058"/><g transform="translate(8.679 29.545)"><path d="M329.832,213.971a22.629,22.629,0,0,0,.51,2.569,18.028,18.028,0,0,0,6.928,9.8c3.2,2.009,7.377,3.046,12.463,2.969,9.6.224,17.324-5.5,23.725-11.494V211.2a15.645,15.645,0,0,0-15.57-15.717h-30.57v.3Zm24.655-11.3a3.8,3.8,0,1,1,7.605,0v2.985a3.8,3.8,0,1,1-7.605,0Zm-10.331,12.113h9.992a5,5,0,1,1-9.992,0Zm-6.782-12.113a3.8,3.8,0,1,1,7.605,0v2.985a3.8,3.8,0,1,1-7.605,0Z" transform="translate(-325.831 -162.053)" fill="#ea8058"/><path d="M348.666,201.269a3.818,3.818,0,0,1,3.8,3.839v2.985a3.8,3.8,0,1,1-7.605,0v-2.985A3.832,3.832,0,0,1,348.666,201.269Z" transform="translate(-333.319 -164.492)" fill="#2e3033"/><path d="M378.521,201.269a3.819,3.819,0,0,1,3.8,3.839v2.985a3.8,3.8,0,1,1-7.605,0v-2.985A3.832,3.832,0,0,1,378.521,201.269Z" transform="translate(-346.063 -164.492)" fill="#2e3033"/><path d="M361.68,233.894a5.01,5.01,0,0,1-4.985-5.054h9.993A5.028,5.028,0,0,1,361.68,233.894Z" transform="translate(-338.37 -176.111)" fill="#2e3033"/><path d="M339.837,141.789l26.788-3.9a17.588,17.588,0,0,1,19.9,15.333c1.78,15.223-4.67,30.353-14.168,40.293-.009-.011-.018-.023-.028-.033l.02-.018v-6.611a15.645,15.645,0,0,0-15.57-15.717H326.21L324.9,162.2A18.018,18.018,0,0,1,339.837,141.789Z" transform="translate(-324.723 -137.704)" fill="#ea8058"/><path d="M327.318,195.482v.3l2.514,18.191a22.629,22.629,0,0,0,.51,2.569,18.028,18.028,0,0,0,6.928,9.8c3.2,2.009,7.377,3.046,12.463,2.969,9.6.224,17.421-4.976,23.725-11.494V211.2a15.645,15.645,0,0,0-15.57-15.717Zm27.169,7.187a3.8,3.8,0,1,1,7.605,0v2.985a3.8,3.8,0,1,1-7.605,0Zm-10.331,12.113h9.992a5,5,0,1,1-9.992,0Zm-6.782-12.113a3.8,3.8,0,1,1,7.605,0v2.985a3.8,3.8,0,1,1-7.605,0Z" transform="translate(-325.831 -162.053)" fill="#f3946f"/><path d="M361.68,233.894a5.01,5.01,0,0,1-4.985-5.054h9.993A5.028,5.028,0,0,1,361.68,233.894Z" transform="translate(-338.37 -176.111)" fill="#fff"/><path d="M348.666,201.269a3.818,3.818,0,0,1,3.8,3.839v2.985a3.8,3.8,0,1,1-7.605,0v-2.985A3.832,3.832,0,0,1,348.666,201.269Z" transform="translate(-333.319 -164.492)" fill="#2e3033"/><path d="M378.521,201.269a3.819,3.819,0,0,1,3.8,3.839v2.985a3.8,3.8,0,1,1-7.605,0v-2.985A3.832,3.832,0,0,1,378.521,201.269Z" transform="translate(-346.063 -164.492)" fill="#2e3033"/></g><path d="M324.738,175.837a18.769,18.769,0,0,0,.169,2.41l.4,2.836h12.317a4.144,4.144,0,0,1,3.57,2.068,4.143,4.143,0,0,0,3.57,2.069H371a7.433,7.433,0,0,1,6.486,3.838l8.528-2.683A66.6,66.6,0,0,0,387,175.858l-62.259-.021Z" transform="translate(-316.05 -124.229)" fill="#472c53"/><path d="M403.247,105.175c4.331,2.325,6.148,6.291,7.268,10.727.38,1.514,1.1,2.772,2.852,2.346,1.838-.448,1.605-1.962,1.289-3.412C413.346,109.014,408.888,105.026,403.247,105.175Z" transform="translate(-349.56 -94.448)" fill="#ea8058"/><path d="M414.949,208.927a9.472,9.472,0,1,0-9.232-9.468A9.361,9.361,0,0,0,414.949,208.927Z" transform="translate(-350.615 -130.194)" fill="#ea8058"/><path d="M421.641,202.03a2.384,2.384,0,0,0,.211-4.415,3.725,3.725,0,0,0-2.936-.106c-2.049.811-2.619,2.154-2.619,4.542a5.722,5.722,0,0,0,1.373,3.71c0-.128-.021-.256-.021-.384C417.627,203.907,419.781,202.691,421.641,202.03Z" transform="translate(-355.13 -133.255)" fill="#f3946f"/><path d="M312.267,132.979h0q-.151-1.179-.239-2.375c-.063-.869-.1-1.747-.1-2.637a37.217,37.217,0,0,1,5.983-20.31q.946-1.459,2.02-2.819.429-.544.878-1.071.224-.263.453-.522.458-.518.935-1.019a37.063,37.063,0,0,1,4.1-3.7q.546-.424,1.107-.828a36.548,36.548,0,0,1,8.567-4.572,5.321,5.321,0,0,0,.773-.359,5.375,5.375,0,0,0,.569-.374q.126-.094.245-.194a5.439,5.439,0,0,0,1.54-2.144,5.464,5.464,0,0,1,2.674-2.873,5.307,5.307,0,0,1,2.332-.54h9.211a5.322,5.322,0,0,1,2.332.541,5.388,5.388,0,0,1,2.3,2.151,5.473,5.473,0,0,1,.355.741,5.417,5.417,0,0,0,3.127,3.071,36.452,36.452,0,0,1,8.011,4.163q.285.2.566.4a37.092,37.092,0,0,1,9.5,9.956q.378.583.735,1.182.536.9,1.022,1.827a37.235,37.235,0,0,1,4.228,17.3,35.884,35.884,0,0,1-.359,5.032,5.121,5.121,0,0,1,1.4.917,4.456,4.456,0,0,1,1.492,3.263h0l-.021.021a1.379,1.379,0,0,1-.071.383,1.526,1.526,0,0,1-.879.918c-6.422,2.6-70.266,2.6-76.688,0h0C308.747,137.9,309.749,133.506,312.267,132.979Z" transform="translate(-309.58 -86.638)" fill="#feca36"/><path d="M357.908,116.273l-7.922,12.944,7.922,4.627,7.923-4.627Z" transform="translate(-326.827 -99.127)" fill="#2e3033"/><path d="M357.908,148.622l-7.922-4.926,7.922,11.324,7.923-11.324Z" transform="translate(-326.827 -110.684)" fill="#2e3033"/><path d="M424.472,140.069h.042a4.688,4.688,0,0,0-2.894-4.18,35.907,35.907,0,0,0,.359-5.032,37.122,37.122,0,0,0-24.041-34.825,5.437,5.437,0,0,1-2.873-2.538l3.824,8.338a66.761,66.761,0,0,1,6,30.709l-.465,10.535,6.57-.277c6.359-.32,11.05-.789,12.57-1.408A1.556,1.556,0,0,0,424.472,140.069Z" transform="translate(-346.068 -89.527)" fill="#f7a836"/></g><path d="M410.29,252.351a12.309,12.309,0,0,1,1.737,5.234.632.632,0,0,0-.1.065,9.073,9.073,0,0,1-4.981,2.214,26.618,26.618,0,0,1-3.778.082c.081-3.234-3.56-5.737-6.875-5.049-.438-1.981-1.539-9.781-1.539-9.781S405.81,245.115,410.29,252.351Z" transform="translate(-261.362 -153.426)" fill="#ededed"/><path d="M405.825,268.625a16.266,16.266,0,0,0,8.844-2.219c.514,4.5-2.473,9.62-6.045,11.7-2.471,1.442-6.994-1.1-7.644-3.217C404.62,272.884,405.913,270.6,405.825,268.625Z" transform="translate(-264.018 -162.397)" fill="#ea8058"/><path d="M400.98,275.463c3.64-2.009,4.933-4.294,4.845-6.269a16.775,16.775,0,0,0,7.363-1.437c-.015.79.246,5.476-4.848,10.164-.277.255-1,.458-1.043.746a.552.552,0,0,0,.377.923c.065,0,.129,0,.193-.005a19.3,19.3,0,0,1-5.984,2.424A20.6,20.6,0,0,0,400.98,275.463Z" transform="translate(-264.018 -162.967)" fill="#f3946f"/><path d="M399.37,278.805a7.083,7.083,0,0,1,4.366,2.276,5.888,5.888,0,0,1,1.29,2.237,3.312,3.312,0,0,1-2.156,3.1,2.441,2.441,0,0,1-.7,2.592c-2.745,2.588-7.657-.283-8.088-.822a9.506,9.506,0,0,1-1.526-4.581C392.376,282.385,396.258,278.307,399.37,278.805Z" transform="translate(-260.419 -167.607)" fill="#ea8058"/><path d="M401.686,285.981a5.989,5.989,0,0,0-1.263,1.317c-1.126.233-2.715.033-5.093-1.06a6.867,6.867,0,0,1-2.773-2.631c.611-2.183,4.054-5.245,6.817-4.8a7.083,7.083,0,0,1,4.366,2.276,9.508,9.508,0,0,1,.707.949.469.469,0,0,0-.249.6,2.373,2.373,0,0,1-1.627,2.965A2.063,2.063,0,0,0,401.686,285.981Z" transform="translate(-260.423 -167.604)" fill="#f3946f"/></g></svg>