<svg xmlns="http://www.w3.org/2000/svg" xmlns:xlink="http://www.w3.org/1999/xlink" viewBox="7183 2307 705.5 347.331">
  <defs>
    <style>
      .cls-1 {
        fill: url(#linear-gradient);
      }

      .cls-2 {
        fill: url(#linear-gradient-2);
      }

      .cls-3, .cls-5 {
        fill: none;
        stroke: #999;
        stroke-miterlimit: 10;
      }

      .cls-3 {
        stroke-dasharray: 12 8;
      }

      .cls-4 {
        fill: url(#linear-gradient-3);
      }

      .cls-6 {
        fill: url(#linear-gradient-4);
      }
    </style>
    <linearGradient id="linear-gradient" y1="0.5" x2="1" y2="0.5" gradientUnits="objectBoundingBox">
      <stop offset="0" stop-color="#999"/>
      <stop offset="1" stop-color="#999" stop-opacity="0"/>
    </linearGradient>
    <linearGradient id="linear-gradient-2" x1="0" y1="0.5" y2="0.5" xlink:href="#linear-gradient"/>
    <linearGradient id="linear-gradient-3" x1="1" y1="0.5" x2="0" y2="0.5" gradientUnits="objectBoundingBox">
      <stop offset="0" stop-color="#999"/>
      <stop offset="0.379" stop-color="#999" stop-opacity="0.122"/>
      <stop offset="1" stop-color="#999" stop-opacity="0"/>
    </linearGradient>
    <linearGradient id="linear-gradient-4" x1="1" y1="0.5" x2="0.003" y2="0.5" gradientUnits="objectBoundingBox">
      <stop offset="0" stop-color="#999"/>
      <stop offset="0.276" stop-color="#999" stop-opacity="0.063"/>
      <stop offset="1" stop-color="#999" stop-opacity="0"/>
    </linearGradient>
  </defs>
  <g id="footer-mobile" transform="translate(7403 1207)">
    <g id="Group_3581" data-name="Group 3581" transform="translate(107 1242)">
      <path id="Path_22660" data-name="Path 22660" class="cls-1" d="M181.8,146.8V97.6l41.5-24.4L182.2,49.5l-41.4,24-.1,18.2h-1l.1-18.8,42.4-24.5,43,24.8L182.8,98.1V145l41-23.6V89.1l.2-.2L378,0l.5.9L224.8,89.6V122Z"/>
      <path id="Path_22661" data-name="Path 22661" class="cls-2" d="M.5,105.9l-.5-.8L182,0l.5.9Z"/>
      <path id="Path_22662" data-name="Path 22662" class="cls-3" d="M154.3,48.9V32.8l14-8.1,56,32.3"/>
    </g>
    <g id="Group_3582" data-name="Group 3582" transform="translate(-220 1100)">
      <path id="Path_22663" data-name="Path 22663" class="cls-4" d="M476.6,162l-10.4-6,.5-.9,10.4,6Zm-17.3-10-10.4-6,.5-.9,10.4,6ZM442,142l-10.4-6,.5-.9,10.4,6Zm-17.3-10-10.4-6,.5-.9,10.4,6Zm-17.3-10L397,116l.5-.9,10.4,6ZM390,112l-10.4-6,.5-.9,10.4,6Zm-17.3-10-10.4-6,.5-.9,10.4,6ZM355.4,92,345,86l.5-.9,10.4,6ZM338.1,82l-10.4-6,.5-.9,10.4,6Z" transform="translate(-162 68)"/>
      <path id="Path_22664" data-name="Path 22664" class="cls-5" d="M518,346.9,350,248.2V233.7l-14-8-14,8,14,8.1v16.1l12.5-8"/>
      <path id="Path_22665" data-name="Path 22665" class="cls-5" d="M392,225.7l28,16.2v46.9"/>
      <path id="Path_22666" data-name="Path 22666" class="cls-6" d="M384.9,223.2,0,.9.5,0,385.4,222.3Z"/>
    </g>
  </g>
</svg>
