<svg xmlns="http://www.w3.org/2000/svg" viewBox="0 0 563.85 154.89">
  <title>nomic-solid-horizontal-reverse</title>
  <g id="logo">
    <g>
      <path d="M377.56,56.57h5V90.15h17.83v4.22H377.56Z" fill="#fff"/>
      <path d="M427.91,56.57h-3.28L408.38,94.38h4.91l3.26-7.6.12-.28,2.87-6.8h0l1.2-2.82.4-.95,5-11.8L431,75.47h0l4.82,11.31h-.05l3.26,7.6h5.16Z" fill="#fff"/>
      <path d="M455.72,56.57H468.2c7.69,0,11,4.47,11,9.89a10,10,0,0,1-4,7.43,10.28,10.28,0,0,1,6,9.39c0,6.11-3.72,11.09-12.35,11.09H455.72ZM468.2,72.19c4.72,0,6.17-2.83,6.17-5.73s-1.45-5.67-6.17-5.67h-7.44v11.4Zm.63,18c5.67,0,7.37-3.4,7.37-6.87s-1.7-6.86-7.37-6.86h-8.07V90.15Z" fill="#fff"/>
      <path d="M493.1,90.59l1.14-4.66a15.4,15.4,0,0,0,11.46,5.16c4.48,0,7.94-2.51,7.94-6.61,0-3.84-1.89-6-8.94-7.88s-10.53-5.73-10.53-11,4.42-9.83,12.16-9.83a17,17,0,0,1,10.27,3.46l-1.13,4a16.93,16.93,0,0,0-9.14-3.34c-4.72,0-7.43,2.21-7.43,5.74,0,2.71,1.7,5,7.62,6.55,8.13,2.14,11.85,5.67,11.85,11.91,0,7.37-6.18,11.15-12.67,11.15C499.53,95.19,495.18,92.73,493.1,90.59Z" fill="#fff"/>
    </g>
    <g>
      <polygon points="140.44 94.77 146.46 94.77 146.46 62.13 162.43 62.13 162.43 94.77 168.45 94.77 168.45 56.12 140.44 56.12 140.44 94.77" fill="#fff"/>
      <path d="M200.68,55.34a20.13,20.13,0,1,0,20.14,20.13A20.15,20.15,0,0,0,200.68,55.34Zm14.24,20.13a14.24,14.24,0,1,1-14.24-14.24A14.26,14.26,0,0,1,214.92,75.47Z" fill="#fff"/>
      <polygon points="233.72 94.8 239.74 94.8 239.74 62.16 253.45 62.16 253.45 94.8 259.47 94.8 259.47 62.16 273.18 62.16 273.18 94.8 279.2 94.8 279.2 56.15 233.72 56.15 233.72 94.8" fill="#fff"/>
      <path d="M346.06,84.81a14.08,14.08,0,1,1,.05-18.62l.43.5,4.9-3.26-.53-.64a19.93,19.93,0,1,0-.06,25.43l.53-.64-4.89-3.26Z" fill="#fff"/>
      <rect x="296.56" y="56.15" width="6.02" height="38.65" fill="#fff"/>
    </g>
    <g>
      <polygon points="78.84 38.67 45.33 58.07 45.27 96.83 78.84 116.2 78.84 77.43 112.41 58.08 78.84 38.67" fill="#fff"/>
      <g>
        <polygon points="107.36 93.92 84.75 106.97 84.75 112.79 112.41 96.83 112.41 64.81 107.36 67.72 107.36 93.92" fill="#fff"/>
        <polygon points="112.39 64.8 112.41 64.81 112.41 64.79 112.39 64.8" fill="#fff"/>
      </g>
    </g>
  </g>
</svg>
